<?xml version="1.0" standalone="no"?>
<!DOCTYPE svg PUBLIC "-//W3C//DTD SVG 1.1//EN" "http://www.w3.org/Graphics/SVG/1.1/DTD/svg11.dtd" >
<svg xmlns="http://www.w3.org/2000/svg">
<metadata>Generated by IcoMoon</metadata>
<defs>
<font id="icomoon" horiz-adv-x="1024">
<font-face units-per-em="1024" ascent="960" descent="-64" />
<missing-glyph horiz-adv-x="1024" />
<glyph unicode="&#x20;" horiz-adv-x="512" d="" />
<glyph unicode="&#xe900;" glyph-name="clock_1" d="M524.8 680.96c151.040 0 271.36-122.88 271.36-271.36s-122.88-271.36-271.36-271.36-271.36 120.32-271.36 271.36 120.32 271.36 271.36 271.36zM524.8 704c-163.84 0-294.4-130.56-294.4-294.4s130.56-294.4 294.4-294.4c163.84 0 294.4 130.56 294.4 294.4s-130.56 294.4-294.4 294.4v0zM512 601.6h25.6v-179.2h-25.6v179.2zM512 396.8v25.6h179.2v-25.6h-179.2zM258.56 537.6c5.12 7.68 7.68 15.36 12.8 23.040l-12.8 12.8c-35.84 35.84-35.84 92.16 0 125.44 17.92 17.92 38.4 25.6 64 25.6 23.040 0 46.080-10.24 64-25.6l20.48-20.48c7.68 2.56 17.92 7.68 25.6 10.24l-28.16 28.16c-23.040 23.040-51.2 33.28-81.92 33.28s-58.88-10.24-81.92-33.28v0c-46.080-46.080-46.080-117.76 0-163.84l17.92-15.36zM642.56 678.4l20.48 20.48c17.92 17.92 38.4 25.6 64 25.6s46.080-10.24 64-25.6c35.84-35.84 35.84-92.16 0-125.44l-12.8-12.8c5.12-7.68 7.68-15.36 12.8-23.040l17.92 17.92c46.080 46.080 46.080 117.76 0 163.84v0c-23.040 23.040-51.2 33.28-81.92 33.28s-58.88-10.24-81.92-33.28l-28.16-28.16c7.68-5.12 17.92-7.68 25.6-12.8zM363.704 189.811l18.102-18.102-54.305-54.305-18.102 18.102 54.305 54.305zM667.786 171.702l18.102 18.102 54.305-54.305-18.102-18.102-54.305 54.305z" />
<glyph unicode="&#xe901;" glyph-name="outdoor" d="M294.4 445.44c64 0 115.2-51.2 115.2-115.2s-51.2-115.2-115.2-115.2-115.2 51.2-115.2 115.2 51.2 115.2 115.2 115.2zM294.4 471.040c-76.8 0-140.8-64-140.8-140.8s64-140.8 140.8-140.8 140.8 64 140.8 140.8c0 79.36-64 140.8-140.8 140.8v0zM729.6 445.44c64 0 115.2-51.2 115.2-115.2s-51.2-115.2-115.2-115.2-115.2 51.2-115.2 115.2 51.2 115.2 115.2 115.2zM729.6 471.040c-76.8 0-140.8-64-140.8-140.8s64-140.8 140.8-140.8 140.8 64 140.8 140.8c0 79.36-64 140.8-140.8 140.8v0zM499.2 317.44c0 0-5.12 61.44-25.6 125.44-15.36 48.64-66.56 61.44-115.2 76.8-20.48 5.12-40.96 10.24-56.32 17.92-35.84 17.92-40.96 40.96-38.4 56.32 7.68 48.64 107.52 87.040 197.12 97.28 53.76 5.12 92.16 0 115.2-23.040 17.92-15.36 25.6-38.4 25.6-66.56 0-20.48-5.12-35.84-10.24-51.2-10.24-38.4-17.92-61.44 74.24-107.52l-10.24-23.040c-102.4 51.2-99.84 87.040-87.040 138.24 5.12 12.8 7.68 28.16 7.68 43.52 0 23.040-5.12 38.4-17.92 48.64-17.92 15.36-48.64 20.48-97.28 15.36-97.28-10.24-168.96-48.64-174.080-76.8-2.56-12.8 12.8-20.48 23.040-28.16 12.8-7.68 33.28-12.8 51.2-17.92 51.2-12.8 112.64-30.72 133.12-92.16 23.040-66.56 25.6-128 25.6-130.56l-20.48-2.56zM704 624.64c20.48 0 38.4-17.92 38.4-38.4s-17.92-38.4-38.4-38.4-38.4 17.92-38.4 38.4 17.92 38.4 38.4 38.4zM704 650.24c-35.84 0-64-28.16-64-64s28.16-64 64-64c35.84 0 64 28.16 64 64s-28.16 64-64 64v0z" />
<glyph unicode="&#xe902;" glyph-name="tool" d="M691.2 729.6c15.36 0 25.6-10.24 25.6-25.6v-537.6c0-15.36-10.24-25.6-25.6-25.6h-332.8c-15.36 0-25.6 10.24-25.6 25.6v537.6c0 15.36 10.24 25.6 25.6 25.6h332.8zM691.2 755.2h-332.8c-28.16 0-51.2-23.040-51.2-51.2v-537.6c0-28.16 23.040-51.2 51.2-51.2h332.8c28.16 0 51.2 23.040 51.2 51.2v537.6c0 28.16-23.040 51.2-51.2 51.2v0zM665.6 678.4v-128h-281.6v128h281.6zM691.2 704h-332.8v-179.2h332.8v179.2zM614.4 627.2h-179.2v-25.6h179.2v25.6zM640 345.6v0c-2.56 25.6-12.8 48.64-33.28 69.12-20.48 17.92-43.52 28.16-69.12 33.28v0 25.6h-25.6v-25.6c-25.6-2.56-48.64-12.8-69.12-33.28-17.92-20.48-28.16-43.52-33.28-69.12v0h-25.6v-25.6h25.6c2.56-20.48 10.24-40.96 25.6-58.88v0c2.56-2.56 5.12-7.68 7.68-10.24v0c2.56-2.56 7.68-5.12 10.24-7.68v0c17.92-12.8 38.4-23.040 58.88-25.6v0-25.6h25.6v25.6c25.6 2.56 48.64 12.8 69.12 33.28s30.72 43.52 33.28 69.12v0h25.6v25.6h-25.6zM460.8 396.8c17.92 17.92 38.4 25.6 64 25.6 20.48 0 38.4-7.68 53.76-17.92l-125.44-125.44c-25.6 35.84-23.040 84.48 7.68 117.76zM588.8 268.8c-17.92-17.92-38.4-25.6-64-25.6-20.48 0-38.4 7.68-53.76 17.92l125.44 125.44c25.6-35.84 23.040-84.48-7.68-117.76z" />
<glyph unicode="&#xe903;" glyph-name="pc" d="M819.2 704v-358.4c0-28.16-23.040-51.2-51.2-51.2h-486.4c-28.16 0-51.2 23.040-51.2 51.2v358.4h588.8zM844.8 729.6h-640v-384c0-43.52 33.28-76.8 76.8-76.8h486.4c43.52 0 76.8 33.28 76.8 76.8v384zM568.32 268.8l15.36-76.8h-117.76l15.36 76.8h87.040zM588.8 294.4h-128l-25.6-128h179.2l-25.6 128zM665.6 192h-281.6v-25.6h281.6v25.6z" />
<glyph unicode="&#xe904;" glyph-name="video" d="M691.2 755.2c15.36 0 25.6-10.24 25.6-25.6v-537.6c0-15.36-10.24-25.6-25.6-25.6h-332.8c-15.36 0-25.6 10.24-25.6 25.6v537.6c0 15.36 10.24 25.6 25.6 25.6h332.8zM691.2 780.8h-332.8c-28.16 0-51.2-23.040-51.2-51.2v-537.6c0-28.16 23.040-51.2 51.2-51.2h332.8c28.16 0 51.2 23.040 51.2 51.2v537.6c0 28.16-23.040 51.2-51.2 51.2v0zM524.8 704c64 0 115.2-51.2 115.2-115.2s-51.2-115.2-115.2-115.2-115.2 51.2-115.2 115.2 51.2 115.2 115.2 115.2zM524.8 729.6c-76.8 0-140.8-64-140.8-140.8s64-140.8 140.8-140.8c76.8 0 140.8 64 140.8 140.8s-64 140.8-140.8 140.8v0zM524.8 371.2c35.84 0 64-28.16 64-64s-28.16-64-64-64-64 28.16-64 64 28.16 64 64 64zM524.8 396.8c-48.64 0-89.6-40.96-89.6-89.6s40.96-89.6 89.6-89.6 89.6 40.96 89.6 89.6-40.96 89.6-89.6 89.6v0zM524.8 627.2c20.48 0 38.4-17.92 38.4-38.4s-17.92-38.4-38.4-38.4-38.4 17.92-38.4 38.4 17.92 38.4 38.4 38.4zM524.8 652.8c-35.84 0-64-28.16-64-64s28.16-64 64-64c35.84 0 64 28.16 64 64s-28.16 64-64 64v0z" />
<glyph unicode="&#xe905;" glyph-name="rc" d="M512 473.6c15.36 0 25.6-10.24 25.6-25.6s-10.24-25.6-25.6-25.6-25.6 10.24-25.6 25.6 10.24 25.6 25.6 25.6zM512 499.2c-28.16 0-51.2-23.040-51.2-51.2s23.040-51.2 51.2-51.2c28.16 0 51.2 23.040 51.2 51.2s-23.040 51.2-51.2 51.2v0zM299.52 384c-12.8-7.68-28.16-12.8-43.52-12.8-43.52 0-76.8 33.28-76.8 76.8s33.28 76.8 76.8 76.8c15.36 0 30.72-5.12 43.52-12.8l33.28 5.12c-17.92 20.48-46.080 33.28-76.8 33.28-56.32 0-102.4-46.080-102.4-102.4s46.080-102.4 102.4-102.4c30.72 0 56.32 12.8 76.8 33.28l-33.28 5.12zM581.12 268.8l-5.12-33.28c7.68-12.8 12.8-28.16 12.8-43.52 0-43.52-33.28-76.8-76.8-76.8s-76.8 33.28-76.8 76.8c0 15.36 5.12 30.72 12.8 43.52l-5.12 33.28c-20.48-17.92-33.28-46.080-33.28-76.8 0-56.32 46.080-102.4 102.4-102.4s102.4 46.080 102.4 102.4c0 30.72-12.8 56.32-33.28 76.8zM768 550.4c-30.72 0-56.32-12.8-76.8-33.28l33.28-5.12c12.8 7.68 28.16 12.8 43.52 12.8 43.52 0 76.8-33.28 76.8-76.8s-33.28-76.8-76.8-76.8c-15.36 0-30.72 5.12-43.52 12.8l-33.28-5.12c17.92-20.48 46.080-33.28 76.8-33.28 56.32 0 102.4 46.080 102.4 102.4s-46.080 102.4-102.4 102.4zM442.88 627.2l5.12 33.28c-7.68 12.8-12.8 28.16-12.8 43.52 0 43.52 33.28 76.8 76.8 76.8s76.8-33.28 76.8-76.8c0-15.36-5.12-30.72-12.8-43.52l5.12-33.28c20.48 17.92 33.28 46.080 33.28 76.8 0 56.32-46.080 102.4-102.4 102.4s-102.4-46.080-102.4-102.4c0-30.72 12.8-56.32 33.28-76.8zM512 704c2.56 0 5.12-2.56 5.12-2.56l20.48-153.6 2.56-10.24 10.24-5.12 76.8-51.2 5.12-2.56h5.12l128-20.48c2.56 0 5.12-2.56 5.12-5.12s-2.56-5.12-5.12-5.12l-128-20.48h-5.12l-5.12-2.56-76.8-51.2-10.24-5.12-2.56-20.48-20.48-153.6c0-2.56-2.56-5.12-5.12-5.12s-5.12 2.56-5.12 2.56l-20.48 153.6-2.56 10.24-10.24 5.12-76.8 51.2-2.56 10.24h-5.12l-128 20.48c-2.56 0-5.12 2.56-5.12 5.12s2.56 5.12 5.12 5.12l128 20.48h5.12l5.12 2.56 76.8 51.2 10.24 5.12 2.56 10.24 20.48 153.6c-2.56 5.12 0 7.68 2.56 7.68zM512 729.6v0c-15.36 0-28.16-10.24-30.72-25.6l-20.48-153.6-76.8-51.2-128-20.48c-15.36-2.56-25.6-15.36-25.6-30.72v0c0-15.36 10.24-28.16 25.6-30.72l128-20.48 76.8-51.2 20.48-153.6c2.56-15.36 15.36-25.6 30.72-25.6v0c15.36 0 28.16 10.24 30.72 25.6l20.48 153.6 76.8 51.2 128 20.48c15.36 2.56 25.6 15.36 25.6 30.72v0c0 15.36-10.24 28.16-25.6 30.72l-128 20.48-76.8 51.2-20.48 153.6c-2.56 15.36-15.36 25.6-30.72 25.6v0z" />
<glyph unicode="&#xe906;" glyph-name="dress" d="M614.4 729.6v-58.88c0-17.92 5.12-35.84 17.92-48.64 7.68-10.24 17.92-20.48 28.16-28.16l-33.28-84.48c-10.24-23.040-10.24-48.64 0-71.68l104.96-296.96h-414.72l104.96 296.96c7.68 23.040 7.68 48.64 0 71.68l-33.28 84.48c10.24 7.68 20.48 17.92 28.16 28.16 10.24 12.8 17.92 30.72 17.92 48.64v58.88h7.68c15.36-30.72 46.080-51.2 81.92-51.2s66.56 20.48 81.92 51.2h7.68zM640 755.2h-53.76c-5.12-28.16-30.72-51.2-61.44-51.2s-56.32 23.040-61.44 51.2h-53.76v-84.48c0-12.8-5.12-23.040-12.8-33.28-10.24-12.8-25.6-25.6-38.4-35.84l40.96-102.4c7.68-17.92 7.68-35.84 0-53.76l-117.76-330.24h486.4l-117.76 330.24c-5.12 17.92-5.12 35.84 0 53.76l40.96 102.4c-15.36 10.24-28.16 20.48-38.4 35.84-7.68 10.24-12.8 20.48-12.8 33.28v84.48zM640 473.6h-230.4v-25.6h230.4v25.6z" />
<glyph unicode="&#xe907;" glyph-name="game" d="M704 678.4v0c23.040 0 38.4-7.68 51.2-25.6 35.84-46.080 89.6-163.84 89.6-291.84 0-87.040-28.16-92.16-61.44-92.16-28.16 0-64 7.68-102.4 17.92-51.2 12.8-110.080 25.6-168.96 25.6s-117.76-12.8-168.96-25.6c-38.4-7.68-74.24-17.92-102.4-17.92-33.28 0-61.44 7.68-61.44 92.16 0 128 53.76 245.76 89.6 291.84 12.8 17.92 28.16 25.6 51.2 25.6s48.64-7.68 76.8-15.36c33.28-10.24 74.24-20.48 115.2-20.48s79.36 10.24 115.2 20.48c28.16 7.68 53.76 15.36 76.8 15.36zM704 704c-53.76 0-120.32-35.84-192-35.84s-135.68 35.84-192 35.84c-28.16 0-51.2-7.68-71.68-35.84-43.52-56.32-94.72-179.2-94.72-307.2 0-92.16 33.28-117.76 87.040-117.76 69.12 0 168.96 40.96 271.36 40.96s202.24-40.96 271.36-40.96c53.76 0 87.040 25.6 87.040 117.76 0 128-51.2 250.88-97.28 307.2-17.92 28.16-43.52 35.84-69.12 35.84v0zM460.8 499.2h-128v-25.6h128v25.6zM409.6 550.4h-25.6v-128h25.6v128zM652.8 524.8c20.48 0 38.4-17.92 38.4-38.4s-17.92-38.4-38.4-38.4-38.4 17.92-38.4 38.4 17.92 38.4 38.4 38.4zM652.8 550.4c-35.84 0-64-28.16-64-64s28.16-64 64-64c35.84 0 64 28.16 64 64s-28.16 64-64 64v0z" />
<glyph unicode="&#xe908;" glyph-name="beauty" d="M435.2 729.6c-69.12 0-130.56-25.6-179.2-66.56l128-122.88-23.040-320c0-15.36 10.24-28.16 25.6-28.16h97.28c15.36 0 25.6 12.8 25.6 28.16l-23.040 320 128 122.88c-48.64 40.96-110.080 66.56-179.2 66.56v0zM409.6 550.4l-7.68 7.68-107.52 102.4c40.96 28.16 89.6 43.52 140.8 43.52s99.84-15.36 140.8-40.96l-107.52-102.4-7.68-10.24h-51.2zM401.92 448l5.12 76.8h53.76l5.12-76.8h-64zM386.56 217.6l15.36 204.8h69.12l15.36-204.8h-99.84zM793.6 499.2v-281.6h-179.2v281.6h179.2zM793.6 524.8h-179.2c-15.36 0-25.6-10.24-25.6-25.6v-281.6c0-15.36 10.24-25.6 25.6-25.6h179.2c15.36 0 25.6 10.24 25.6 25.6v281.6c0 15.36-10.24 25.6-25.6 25.6v0zM742.4 729.6c-5.12 0-12.8-2.56-17.92-7.68l-69.12-69.12c-10.24-10.24-15.36-23.040-15.36-35.84v-92.16h25.6v92.16c0 7.68 2.56 12.8 7.68 17.92l69.12 69.12v-179.2h25.6v179.2c0 15.36-12.8 25.6-25.6 25.6 0 0 0 0 0 0v0z" />
<glyph unicode="&#xe909;" glyph-name="camera2" d="M627.2 678.4l43.52-66.56 7.68-10.24h89.6c28.16 0 51.2-23.040 51.2-51.2v-281.6c0-28.16-23.040-51.2-51.2-51.2h-486.4c-28.16 0-51.2 23.040-51.2 51.2v281.6c0 28.16 23.040 51.2 51.2 51.2h89.6l7.68 10.24 43.52 66.56h204.8zM640 704h-230.4l-51.2-76.8h-76.8c-43.52 0-76.8-33.28-76.8-76.8v-281.6c0-43.52 33.28-76.8 76.8-76.8h486.4c43.52 0 76.8 33.28 76.8 76.8v281.6c0 43.52-33.28 76.8-76.8 76.8h-76.8l-51.2 76.8zM524.8 499.2c48.64 0 89.6-40.96 89.6-89.6s-40.96-89.6-89.6-89.6-89.6 40.96-89.6 89.6 40.96 89.6 89.6 89.6zM524.8 524.8c-64 0-115.2-51.2-115.2-115.2s51.2-115.2 115.2-115.2c64 0 115.2 51.2 115.2 115.2s-51.2 115.2-115.2 115.2v0z" />
<glyph unicode="&#xe90a;" glyph-name="home_garden" d="M652.8 729.6c23.040 0 43.52-10.24 56.32-25.6 15.36-15.36 20.48-38.4 17.92-61.44l-33.28-271.36h-337.92l-33.28 271.36c-2.56 23.040 5.12 43.52 17.92 61.44 15.36 15.36 35.84 25.6 56.32 25.6h256zM652.8 755.2h-253.44c-61.44 0-110.080-53.76-102.4-115.2l35.84-294.4h384l35.84 294.4c7.68 61.44-38.4 115.2-99.84 115.2v0zM744.96 576l-2.56-25.6h74.24l-15.36-212.48c-2.56-53.76-48.64-94.72-102.4-94.72h-348.16c-53.76 0-97.28 40.96-102.4 94.72l-15.36 212.48h74.24l-2.56 25.6h-99.84l17.92-240.64c5.12-66.56 58.88-117.76 128-117.76h350.72c66.56 0 122.88 51.2 128 117.76l15.36 240.64h-99.84zM391.68 243.2h-5.12l-38.4-64 23.040-12.8 38.4 66.56-17.92 10.24zM663.040 243.2h-5.12l-17.92-10.24 38.4-66.56 23.040 12.8-38.4 64z" />
<glyph unicode="&#xe90b;" glyph-name="light" d="M568.32 606.72l125.44-125.44-307.2-307.2-125.44 125.44 307.2 307.2zM568.32 642.56l-343.040-345.6 163.84-163.84 343.040 343.040-163.84 166.4zM629.76 724.48v0l184.32-184.32-97.28-48.64-135.68 135.68 48.64 97.28c0 0 0 0 0 0zM629.76 750.080c-10.24 0-17.92-5.12-23.040-15.36l-56.32-112.64 163.84-163.84 112.64 56.32c15.36 7.68 17.92 28.16 7.68 40.96l-184.32 184.32c-7.68 7.68-12.8 10.24-20.48 10.24v0zM750.080 750.080l-35.84-35.84 17.92-17.92 35.84 35.84-17.92 17.92zM785.92 714.24l-35.84-35.84 17.92-17.92 35.84 35.84-17.92 17.92zM821.76 678.4l-35.84-35.84 17.92-17.92 35.84 35.84-17.92 17.92zM532.48 455.68c2.56 0 5.12 0 10.24-2.56 5.12-5.12 5.12-12.8 0-17.92-2.56-2.56-7.68-2.56-10.24-2.56s-5.12 0-10.24 2.56c-5.12 5.12-5.12 12.8 0 17.92 5.12 2.56 7.68 2.56 10.24 2.56zM532.48 481.28c-10.24 0-20.48-2.56-28.16-10.24-15.36-15.36-15.36-38.4 0-53.76 7.68-7.68 17.92-10.24 28.16-10.24s20.48 2.56 28.16 10.24c15.36 15.36 15.36 38.4 0 53.76-7.68 5.12-17.92 10.24-28.16 10.24v0z" />
<glyph unicode="&#xe90c;" glyph-name="music" d="M793.6 704c15.36 0 25.6-10.24 25.6-25.6v-486.4c0-15.36-10.24-25.6-25.6-25.6h-537.6c-15.36 0-25.6 10.24-25.6 25.6v486.4c0 15.36 10.24 25.6 25.6 25.6h537.6zM793.6 729.6h-537.6c-28.16 0-51.2-23.040-51.2-51.2v-486.4c0-28.16 23.040-51.2 51.2-51.2h537.6c28.16 0 51.2 23.040 51.2 51.2v486.4c0 28.16-23.040 51.2-51.2 51.2v0zM691.2 704v-281.6h-25.6v281.6h25.6zM716.8 729.6h-76.8v-332.8h76.8v332.8zM665.6 729.6h-25.6v-588.8h25.6v588.8zM537.6 704v-281.6h-25.6v281.6h25.6zM563.2 729.6h-76.8v-332.8h76.8v332.8zM512 729.6h-25.6v-588.8h25.6v588.8zM384 704v-281.6h-25.6v281.6h25.6zM409.6 729.6h-76.8v-332.8h76.8v332.8zM358.4 729.6h-25.6v-588.8h25.6v588.8z" />
<glyph unicode="&#xe90d;" d="M640 627.2c56.32 0 102.4-46.080 102.4-102.4v-256c0-56.32-46.080-102.4-102.4-102.4h-256c-56.32 0-102.4 46.080-102.4 102.4v256c0 56.32 46.080 102.4 102.4 102.4h256zM640 652.8h-256c-71.68 0-128-56.32-128-128v-256c0-71.68 56.32-128 128-128h256c71.68 0 128 56.32 128 128v256c0 71.68-56.32 128-128 128v0z" />
<glyph unicode="&#xe90e;" d="M512 755.2c-48.64 0-92.16-20.48-122.88-56.32l20.48-15.36c25.6 28.16 61.44 46.080 102.4 46.080s76.8-17.92 104.96-46.080l20.48 15.36c-33.28 35.84-76.8 56.32-125.44 56.32z" />
<glyph unicode="&#xe90f;" d="M512 806.4c-66.56 0-122.88-28.16-163.84-74.24l20.48-15.36c35.84 38.4 87.040 64 143.36 64s107.52-25.6 143.36-64l20.48 15.36c-40.96 46.080-97.28 74.24-163.84 74.24z" />
<glyph unicode="&#xe910;" d="M435.2 499.2h25.6v-76.8h-25.6v76.8z" />
<glyph unicode="&#xe911;" d="M563.2 499.2h25.6v-76.8h-25.6v76.8z" />
<glyph unicode="&#xe912;" d="M486.4 371.2v-25.6c0-15.36 10.24-25.6 25.6-25.6s25.6 10.24 25.6 25.6v25.6h-51.2z" />
<glyph unicode="&#xe913;" glyph-name="car" d="M599.040 704c40.96 0 76.8-17.92 102.4-51.2 5.12-7.68 10.24-15.36 12.8-25.6l23.040-81.92c5.12-23.040 17.92-40.96 33.28-58.88l43.52-43.52c5.12-5.12 7.68-10.24 7.68-17.92v-181.76h-76.8v76.8h-463.36v-76.8h-76.8v184.32c0 7.68 2.56 12.8 7.68 17.92l43.52 43.52c15.36 15.36 28.16 35.84 33.28 58.88l23.040 81.92c2.56 10.24 7.68 17.92 12.8 25.6 23.040 30.72 61.44 51.2 102.4 51.2h171.52zM599.040 729.6h-176.64c-48.64 0-94.72-23.040-122.88-61.44-7.68-10.24-12.8-23.040-15.36-33.28l-20.48-84.48c-5.12-17.92-12.8-33.28-25.6-46.080l-43.52-43.52c-10.24-7.68-15.36-20.48-15.36-33.28v-184.32c0-15.36 10.24-25.6 25.6-25.6h76.8c15.36 0 25.6 10.24 25.6 25.6v51.2h409.6v-51.2c0-15.36 10.24-25.6 25.6-25.6h76.8c15.36 0 25.6 10.24 25.6 25.6v184.32c0 12.8-5.12 25.6-15.36 35.84l-43.52 43.52c-12.8 12.8-23.040 28.16-25.6 46.080l-23.040 81.92c-2.56 12.8-7.68 23.040-15.36 33.28-28.16 38.4-74.24 61.44-122.88 61.44v0zM371.2 422.4c7.68 0 12.8-5.12 12.8-12.8s-5.12-12.8-12.8-12.8h-51.2c-7.68 0-12.8 5.12-12.8 12.8s5.12 12.8 12.8 12.8h51.2zM371.2 448h-51.2c-20.48 0-38.4-17.92-38.4-38.4s17.92-38.4 38.4-38.4h51.2c20.48 0 38.4 17.92 38.4 38.4s-17.92 38.4-38.4 38.4v0zM704 422.4c7.68 0 12.8-5.12 12.8-12.8s-5.12-12.8-12.8-12.8h-51.2c-7.68 0-12.8 5.12-12.8 12.8s5.12 12.8 12.8 12.8h51.2zM704 448h-51.2c-20.48 0-38.4-17.92-38.4-38.4s17.92-38.4 38.4-38.4h51.2c20.48 0 38.4 17.92 38.4 38.4s-17.92 38.4-38.4 38.4v0zM588.8 422.4h-153.6v-25.6h153.6v25.6zM243.2 499.2h7.68c5.12 7.68 7.68 15.36 10.24 25.6h-17.92c-7.68 0-12.8 5.12-12.8 12.8s5.12 12.8 12.8 12.8h25.6c0 0 0 0 0 0l7.68 25.6c-2.56 0-5.12 0-7.68 0h-25.6c-20.48 0-38.4-17.92-38.4-38.4s17.92-38.4 38.4-38.4zM755.2 550.4c0 0 0 0 0 0h25.6c7.68 0 12.8-5.12 12.8-12.8s-5.12-12.8-12.8-12.8h-20.48c2.56-10.24 5.12-17.92 10.24-25.6h7.68c20.48 0 38.4 17.92 38.4 38.4s-17.92 38.4-38.4 38.4h-25.6c-2.56 0-5.12 0-7.68 0l10.24-25.6z" />
<glyph unicode="&#xe914;" d="M716.8 217.6h-409.6v-25.6h409.6v25.6z" />
<glyph unicode="&#xe915;" d="M512 192c-15.36 0-25.6-10.24-25.6-25.6s10.24-25.6 25.6-25.6 25.6 10.24 25.6 25.6c0 15.36-10.24 25.6-25.6 25.6v0z" />
<glyph unicode="&#xe916;" d="M665.6 755.2c15.36 0 25.6-10.24 25.6-25.6v-563.2c0-15.36-10.24-25.6-25.6-25.6h-307.2c-15.36 0-25.6 10.24-25.6 25.6v563.2c0 15.36 10.24 25.6 25.6 25.6h307.2zM665.6 780.8h-307.2c-28.16 0-51.2-23.040-51.2-51.2v-563.2c0-28.16 23.040-51.2 51.2-51.2h307.2c28.16 0 51.2 23.040 51.2 51.2v563.2c0 28.16-23.040 51.2-51.2 51.2v0z" />
<glyph unicode="&#xe917;" glyph-name="cart" d="M332.8 166.4c15.36 0 25.6-10.24 25.6-25.6s-10.24-25.6-25.6-25.6-25.6 10.24-25.6 25.6 10.24 25.6 25.6 25.6zM332.8 192c-28.16 0-51.2-23.040-51.2-51.2s23.040-51.2 51.2-51.2 51.2 23.040 51.2 51.2c0 28.16-23.040 51.2-51.2 51.2v0zM614.4 166.4c15.36 0 25.6-10.24 25.6-25.6s-10.24-25.6-25.6-25.6-25.6 10.24-25.6 25.6 10.24 25.6 25.6 25.6zM614.4 192c-28.16 0-51.2-23.040-51.2-51.2s23.040-51.2 51.2-51.2 51.2 23.040 51.2 51.2c0 28.16-23.040 51.2-51.2 51.2v0zM793.6 678.4h-591.36l-12.8 102.4h-112.64v-25.6h92.16l10.24-89.6 2.56-12.8 48.64-409.6h460.8v25.6h-437.76l-10.24 76.8h448l102.4 332.8zM240.64 371.2l-35.84 281.6h552.96l-87.040-281.6h-430.080z" />
<glyph unicode="&#xe918;" glyph-name="bell" d="M742.4 332.8v192c0 99.84-64 186.88-153.6 217.6-7.68 35.84-38.4 64-76.8 64s-69.12-28.16-76.8-64c-89.6-30.72-153.6-117.76-153.6-217.6v-192c-30.72-28.16-51.2-69.12-51.2-115.2h563.2c0 46.080-20.48 87.040-51.2 115.2zM299.52 312.32l7.68 7.68v204.8c0 87.040 56.32 163.84 138.24 194.56l15.36 5.12v12.8c5.12 25.6 25.6 43.52 51.2 43.52s46.080-17.92 51.2-43.52l2.56-15.36 15.36-5.12c81.92-28.16 138.24-107.52 138.24-194.56v-202.24l7.68-7.68c20.48-17.92 35.84-43.52 40.96-69.12h-509.44c5.12 25.6 20.48 51.2 40.96 69.12zM555.52 192c5.12-7.68 7.68-15.36 7.68-25.6 0-28.16-23.040-51.2-51.2-51.2s-51.2 23.040-51.2 51.2c0 10.24 2.56 17.92 7.68 25.6h-28.16c-2.56-7.68-5.12-15.36-5.12-25.6 0-43.52 33.28-76.8 76.8-76.8s76.8 33.28 76.8 76.8c0 10.24-2.56 17.92-5.12 25.6h-28.16z" />
<glyph unicode="&#xe919;" glyph-name="bag" d="M460.8 678.4h102.4v-25.6h-102.4v25.6zM742.4 576c0 56.32-46.080 102.4-102.4 102.4v-25.6c43.52 0 76.8-33.28 76.8-76.8v0 0l25.6-384c0-28.16-23.040-51.2-51.2-51.2h-358.4c-28.16 0-51.2 23.040-51.2 51.2l25.6 384c0 43.52 33.28 76.8 76.8 76.8v25.6c-56.32 0-102.4-46.080-102.4-102.4l-25.6-384c0-43.52 33.28-76.8 76.8-76.8h358.4c43.52 0 76.8 33.28 76.8 76.8l-25.6 384zM435.2 601.6v76.8c0 43.52 33.28 76.8 76.8 76.8s76.8-33.28 76.8-76.8v-76.8h25.6v76.8c0 56.32-46.080 102.4-102.4 102.4s-102.4-46.080-102.4-102.4v-76.8h25.6z" />
<glyph unicode="&#xe91a;" glyph-name="clock" d="M524.8 755.2c176.64 0 320-143.36 320-320s-143.36-320-320-320-320 143.36-320 320 143.36 320 320 320zM524.8 780.8c-192 0-345.6-153.6-345.6-345.6s153.6-345.6 345.6-345.6 345.6 153.6 345.6 345.6c0 192-153.6 345.6-345.6 345.6v0zM537.6 652.8h-25.6v-230.4h25.6v230.4zM742.4 448h-230.4v-25.6h230.4v25.6z" />
<glyph unicode="&#xe91b;" glyph-name="cog" d="M563.2 755.2v-38.4c0-23.040 15.36-46.080 35.84-53.76 7.68-2.56 15.36-5.12 23.040-5.12 15.36 0 30.72 5.12 40.96 17.92l28.16 28.16 71.68-71.68-25.6-30.72c-17.92-17.92-23.040-43.52-12.8-66.56s30.72-35.84 53.76-35.84h40.96v-102.4h-38.4c-23.040 0-46.080-15.36-53.76-35.84-10.24-23.040-5.12-48.64 12.8-64l28.16-28.16-71.68-71.68-30.72 25.6c-10.24 10.24-25.6 17.92-40.96 17.92-7.68 0-15.36-2.56-23.040-5.12-23.040-10.24-35.84-30.72-35.84-53.76v-40.96h-102.4v38.4c0 23.040-15.36 46.080-35.84 53.76-7.68 2.56-15.36 5.12-23.040 5.12-15.36 0-30.72-5.12-40.96-17.92l-28.16-28.16-71.68 71.68 28.16 28.16c17.92 17.92 23.040 43.52 12.8 66.56s-30.72 35.84-53.76 35.84h-46.080v102.4h38.4c23.040 0 46.080 15.36 53.76 35.84 10.24 23.040 5.12 48.64-12.8 64l-28.16 28.16 71.68 71.68 28.16-28.16c10.24-10.24 25.6-17.92 40.96-17.92 7.68 0 15.36 2.56 23.040 5.12 23.040 10.24 35.84 30.72 35.84 53.76v46.080h107.52zM588.8 780.8h-153.6v-64c0-12.8-7.68-25.6-20.48-30.72 0 0 0 0 0 0-5.12-2.56-7.68-2.56-12.8-2.56-7.68 0-17.92 2.56-23.040 10.24l-46.080 46.080-107.52-107.52 46.080-46.080c10.24-10.24 12.8-23.040 7.68-35.84 0 0 0 0 0 0-5.12-12.8-17.92-20.48-30.72-20.48h-69.12v-153.6h64c12.8 0 25.6-7.68 30.72-20.48 0 0 0 0 0 0 5.12-12.8 2.56-28.16-7.68-35.84l-46.080-46.080 107.52-107.52 46.080 46.080c7.68 7.68 15.36 10.24 23.040 10.24 5.12 0 7.68 0 12.8-2.56 0 0 0 0 0 0 12.8-5.12 20.48-17.92 20.48-30.72v-74.24h153.6v64c0 12.8 7.68 25.6 20.48 30.72 0 0 0 0 0 0 5.12 2.56 7.68 2.56 12.8 2.56 7.68 0 17.92-2.56 23.040-10.24l46.080-46.080 107.52 107.52-46.080 46.080c-10.24 10.24-12.8 23.040-7.68 35.84 0 0 0 0 0 0 5.12 12.8 17.92 20.48 30.72 20.48h74.24v153.6h-64c-12.8 0-25.6 7.68-30.72 20.48 0 0 0 0 0 0-5.12 12.8-2.56 28.16 7.68 35.84l46.080 46.080-107.52 107.52-46.080-46.080c-7.68-7.68-15.36-10.24-23.040-10.24-5.12 0-7.68 0-12.8 2.56 0 0 0 0 0 0-12.8 5.12-20.48 17.92-20.48 30.72v74.24h-5.12zM512 524.8c43.52 0 76.8-33.28 76.8-76.8s-33.28-76.8-76.8-76.8-76.8 33.28-76.8 76.8 33.28 76.8 76.8 76.8zM512 550.4c-56.32 0-102.4-46.080-102.4-102.4s46.080-102.4 102.4-102.4 102.4 46.080 102.4 102.4c0 56.32-46.080 102.4-102.4 102.4v0z" />
<glyph unicode="&#xe91c;" glyph-name="currency" d="M627.2 368.64c0-48.64-46.080-87.040-102.4-87.040-51.2 0-94.72 33.28-99.84 76.8h25.6c7.68-28.16 38.4-51.2 74.24-51.2 43.52 0 76.8 28.16 76.8 64 0 71.68-179.2 17.92-179.2 128 0 48.64 46.080 89.6 102.4 89.6 51.2 0 94.72-33.28 99.84-76.8h-25.6c-7.68 28.16-38.4 51.2-74.24 51.2-43.52 0-76.8-28.16-76.8-64 0-84.48 179.2-25.6 179.2-130.56zM537.6 652.8h-25.6v-76.8h25.6v76.8zM537.6 304.64h-25.6v-76.8h25.6v76.8zM330.24 719.36l17.92-17.92c125.44 81.92 294.4 69.12 401.92-40.96 110.080-110.080 122.88-279.040 40.96-401.92l17.92-17.92c92.16 135.68 79.36 320-40.96 440.32-117.76 117.76-304.64 130.56-437.76 38.4zM701.44 168.96c-125.44-81.92-294.4-69.12-401.92 40.96-110.080 110.080-122.88 279.040-40.96 401.92l-17.92 17.92c-92.16-133.12-79.36-320 40.96-437.76 120.32-120.32 304.64-133.12 440.32-40.96l-20.48 17.92zM240.64 629.76l51.2-51.2 17.92 17.92-53.76 53.76c-7.68-5.12-12.8-12.8-15.36-20.48zM793.6 220.16c5.12 7.68 10.24 12.8 15.36 20.48l-51.2 51.2-15.36-20.48 51.2-51.2z" />
<glyph unicode="&#xe91d;" glyph-name="delete2" d="M640 704v51.2h-230.4v-51.2h-204.8v-25.6h640v25.6h-204.8zM614.4 704h-179.2v25.6h179.2v-25.6zM460.8 576h25.6v-281.6h-25.6v281.6zM563.2 576h25.6v-281.6h-25.6v281.6zM742.4 192c0-28.16-23.040-51.2-51.2-51.2h-332.8c-28.16 0-51.2 23.040-51.2 51.2v435.2h-25.6v-435.2c0-43.52 33.28-76.8 76.8-76.8h332.8c43.52 0 76.8 33.28 76.8 76.8v435.2h-25.6v-435.2z" />
<glyph unicode="&#xe91e;" glyph-name="cart_f" d="M770.56 281.6h-391.68l-153.6 358.4h-161.28v51.2h197.12l153.6-358.4h325.12l145.92 268.8 46.080-25.6zM499.2 179.2c0-28.277-22.923-51.2-51.2-51.2s-51.2 22.923-51.2 51.2c0 28.277 22.923 51.2 51.2 51.2s51.2-22.923 51.2-51.2zM755.2 179.2c0-28.277-22.923-51.2-51.2-51.2s-51.2 22.923-51.2 51.2c0 28.277 22.923 51.2 51.2 51.2s51.2-22.923 51.2-51.2z" />
<glyph unicode="&#xe91f;" glyph-name="home_f" d="M535.040 832l-417.28-399.36 51.2-53.76 363.52 350.72 343.040-343.040 53.76 53.76-394.24 391.68zM250.88 355.84v-294.4h204.8v225.28h145.92v-227.84h194.56v294.4l-268.8 261.12-276.48-258.56z" />
<glyph unicode="&#xe920;" glyph-name="Replies_f" d="M673.28 532.48c-25.6 0-46.080 20.48-46.080 46.080s20.48 46.080 46.080 46.080v0c25.6 0 46.080-20.48 46.080-46.080s-20.48-46.080-46.080-46.080v0zM522.24 532.48c-25.6 0-46.080 20.48-46.080 46.080s20.48 46.080 46.080 46.080v0c25.6 0 46.080-20.48 46.080-46.080s-20.48-46.080-46.080-46.080v0zM865.28 775.68v0c-7.68 17.92-25.6 30.72-46.080 30.72h-442.88c-20.48 0-38.4-12.8-46.080-30.72-2.56-7.68-5.12-15.36-5.12-23.040v-130.56h-99.84c-28.16 0-51.2-23.040-51.2-51.2v-355.84c0-28.16 23.040-51.2 51.2-51.2h56.32c2.56 0 2.56 0 5.12-2.56v-43.52c0-2.56 0-5.12 2.56-7.68 0-2.56 2.56-7.68 5.12-10.24 10.24-12.8 23.040-20.48 38.4-20.48v0c12.8 0 28.16 5.12 35.84 17.92l12.8 12.8 43.52 40.96c2.56 2.56 5.12 5.12 5.12 7.68 2.56 2.56 5.12 5.12 7.68 5.12h227.84c15.36 0 28.16 5.12 35.84 15.36v0 0l-28.16 25.6-17.92 17.92-76.8 71.68h-197.12c-110.080 0-112.64 89.6-112.64 89.6v207.36c0 0 0 2.56 0 2.56s0 2.56 0 2.56v0 0c-2.56 15.36-15.36 25.6-30.72 28.16h81.92v-227.84c0-5.12 0-10.24 2.56-15.36 5.12-23.040 25.6-38.4 48.64-38.4h227.84c2.56 0 5.12-2.56 7.68-5.12s2.56-5.12 5.12-7.68l56.32-53.76c10.24-10.24 23.040-17.92 35.84-17.92 2.56 0 5.12 0 7.68 0 12.8 2.56 23.040 7.68 30.72 17.92 5.12 5.12 5.12 12.8 5.12 17.92v43.52c2.56 0 2.56 2.56 5.12 2.56h66.56c23.040 0 40.96 15.36 48.64 38.4 2.56 7.68 2.56 12.8 2.56 17.92v358.4c0 7.68-2.56 15.36-5.12 20.48v0z" />
<glyph unicode="&#xe921;" glyph-name="tool_f" d="M261.12 235.52c-7.68 7.68-23.040 7.68-30.72 0s-7.68-23.040 0-30.72l61.44-61.44c5.12-5.12 10.24-7.68 15.36-7.68s10.24 2.56 15.36 7.68c7.68 7.68 7.68 23.040 0 30.72l-61.44 61.44zM762.88 832l-89.6-89.6-46.080-107.52-128-128-64 53.76-25.6 25.6c-7.68 7.68-23.040 7.68-30.72 0s-7.68-23.040 0-30.72l25.6-25.6-250.88-250.88c-35.84-35.84-35.84-89.6 0-125.44l89.6-89.6c17.92-17.92 40.96-25.6 61.44-25.6 23.040 0 43.52 7.68 61.44 25.6l250.88 253.44 25.6-25.6c5.12-5.12 10.24-7.68 15.36-7.68s10.24 2.56 15.36 7.68c7.68 7.68 7.68 23.040 0 30.72l-25.6 25.6-58.88 61.44 133.12 130.56 110.080 46.080 89.6 89.6-158.72 156.16zM335.36 99.84c-7.68-7.68-20.48-12.8-30.72-12.8s-23.040 5.12-30.72 12.8l-89.6 89.6c-17.92 17.92-17.92 43.52 0 61.44l250.88 248.32 151.040-151.040-250.88-248.32zM806.4 624.64l-102.4-43.52c-5.12-5.12-7.68-5.12-12.8-10.24l-130.56-130.56-30.72 30.72 128 128c5.12 5.12 7.68 7.68 7.68 12.8l43.52 102.4 53.76 53.76 92.16-92.16-48.64-51.2z" />
<glyph unicode="&#xe922;" glyph-name="download" d="M632.32 550.4l-125.44-125.44 17.92-20.48 125.44 128-17.92 17.92zM417.28 550.4l-17.92-17.92 125.44-128 17.92 20.48-125.44 125.44zM819.2 499.2v-307.2h-588.8v307.2h-25.6v-332.8h640v332.8zM512 704h25.6v-281.6h-25.6v281.6z" />
<glyph unicode="&#xe923;" d="M691.2 422.4v-256h-435.2v537.6h281.6v25.6h-307.2v-588.8h486.4v281.6z" />
<glyph unicode="&#xe924;" d="M706.56 678.4l35.84-35.84-17.92-17.92-35.84 35.84 17.92 17.92zM706.56 714.24l-253.44-253.44-43.52-97.28c-2.56-5.12 0-10.24 2.56-15.36 2.56-2.56 5.12-2.56 10.24-2.56 2.56 0 2.56 0 5.12 0l97.28 40.96 253.44 253.44-71.68 74.24zM448 384l28.16 64 194.56 194.56 35.84-35.84-194.56-194.56-64-28.16z" />
<glyph unicode="&#xe925;" glyph-name="filter" d="M742.4 729.6c20.48 0 38.4-12.8 46.080-30.72 7.68-20.48 5.12-40.96-10.24-56.32l-215.040-215.040v-261.12l-102.4 102.4v156.16l-217.6 217.6c-15.36 15.36-20.48 35.84-10.24 56.32s25.6 30.72 48.64 30.72h460.8zM742.4 755.2h-460.8c-69.12 0-102.4-81.92-53.76-130.56l209.92-209.92v-156.16l110.080-110.080c5.12-5.12 12.8-7.68 17.92-7.68 12.8 0 25.6 10.24 25.6 25.6v250.88l207.36 207.36c46.080 48.64 12.8 130.56-56.32 130.56v0z" />
<glyph unicode="&#xe926;" glyph-name="Flash_sales" d="M460.8 678.4h102.4v-25.6h-102.4v25.6zM742.4 576c0 56.32-46.080 102.4-102.4 102.4v-25.6c43.52 0 76.8-33.28 76.8-76.8v0 0l25.6-384c0-28.16-23.040-51.2-51.2-51.2h-358.4c-28.16 0-51.2 23.040-51.2 51.2l25.6 384c0 43.52 33.28 76.8 76.8 76.8v25.6c-56.32 0-102.4-46.080-102.4-102.4l-25.6-384c0-43.52 33.28-76.8 76.8-76.8h358.4c43.52 0 76.8 33.28 76.8 76.8l-25.6 384zM435.2 601.6v76.8c0 43.52 33.28 76.8 76.8 76.8s76.8-33.28 76.8-76.8v-76.8h25.6v76.8c0 56.32-46.080 102.4-102.4 102.4s-102.4-46.080-102.4-102.4v-76.8h25.6z" />
<glyph unicode="&#xe927;" glyph-name="grid" d="M460.8 729.6v-230.4h-230.4v230.4h230.4zM486.4 755.2h-281.6v-281.6h281.6v281.6zM793.6 729.6v-230.4h-230.4v230.4h230.4zM819.2 755.2h-281.6v-281.6h281.6v281.6zM460.8 396.8v-230.4h-230.4v230.4h230.4zM486.4 422.4h-281.6v-281.6h281.6v281.6zM793.6 396.8v-230.4h-230.4v230.4h230.4zM819.2 422.4h-281.6v-281.6h281.6v281.6z" />
<glyph unicode="&#xe928;" d="M885.76 419.84l-348.16 350.72-348.16-350.72-20.48 17.92 368.64 368.64 368.64-368.64z" />
<glyph unicode="&#xe929;" d="M793.6 371.2v-179.2c0-28.16-23.040-51.2-51.2-51.2h-409.6c-28.16 0-51.2 23.040-51.2 51.2v179.2h-25.6v-179.2c0-43.52 33.28-76.8 76.8-76.8h409.6c43.52 0 76.8 33.28 76.8 76.8v179.2h-25.6z" />
<glyph unicode="&#xe92a;" glyph-name="language" d="M524.8 755.2c176.64 0 320-143.36 320-320s-143.36-320-320-320-320 143.36-320 320 143.36 320 320 320zM524.8 780.8c-192 0-345.6-153.6-345.6-345.6s153.6-345.6 345.6-345.6c192 0 345.6 153.6 345.6 345.6s-153.6 345.6-345.6 345.6v0zM844.8 448h-640v-25.6h640v25.6zM509.44 780.8c81.92-92.16 130.56-212.48 130.56-345.6s-48.64-253.44-130.56-345.6c5.12 0 10.24 0 15.36 0 7.68 0 12.8 0 20.48 0 76.8 94.72 120.32 215.040 120.32 345.6s-46.080 250.88-120.32 345.6c-5.12 0-12.8 0-20.48 0-5.12 0-10.24 0-15.36 0zM540.16 780.8c-81.92-92.16-130.56-212.48-130.56-345.6s48.64-253.44 130.56-345.6c-5.12 0-10.24 0-15.36 0-7.68 0-12.8 0-20.48 0-76.8 94.72-120.32 215.040-120.32 345.6s46.080 250.88 120.32 345.6c5.12 0 12.8 0 20.48 0 5.12 0 10.24 0 15.36 0zM253.44 222.72c5.12-7.68 10.24-12.8 17.92-20.48 76.8 40.96 161.28 66.56 256 66.56 92.16 0 179.2-23.040 256-66.56 5.12 7.68 12.8 12.8 17.92 20.48-84.48 46.080-176.64 71.68-276.48 71.68s-192-25.6-271.36-71.68zM253.44 647.68c5.12 7.68 10.24 12.8 17.92 20.48 76.8-40.96 161.28-66.56 256-66.56 92.16 0 179.2 23.040 256 66.56 5.12-7.68 12.8-12.8 17.92-20.48-84.48-46.080-176.64-71.68-276.48-71.68s-192 25.6-271.36 71.68z" />
<glyph unicode="&#xe92b;" glyph-name="list" d="M460.8 729.6v-230.4h-230.4v230.4h230.4zM486.4 755.2h-281.6v-281.6h281.6v281.6zM460.8 396.8v-230.4h-230.4v230.4h230.4zM486.4 422.4h-281.6v-281.6h281.6v281.6zM819.2 294.4h-281.6v-25.6h281.6v25.6zM819.2 371.2h-281.6v-25.6h281.6v25.6zM819.2 217.6h-281.6v-25.6h281.6v25.6zM819.2 627.2h-281.6v-25.6h281.6v25.6zM819.2 704h-281.6v-25.6h281.6v25.6zM819.2 550.4h-281.6v-25.6h281.6v25.6z" />
<glyph unicode="&#xe92c;" glyph-name="list2" d="M460.8 755.2v-230.4h-230.4v230.4h230.4zM486.4 780.8h-281.6v-281.6h281.6v281.6zM793.6 755.2v-230.4h-230.4v230.4h230.4zM819.2 780.8h-281.6v-281.6h281.6v281.6zM460.8 422.4v-230.4h-230.4v230.4h230.4zM486.4 448h-281.6v-281.6h281.6v281.6zM678.4 422.4c64 0 115.2-51.2 115.2-115.2s-51.2-115.2-115.2-115.2-115.2 51.2-115.2 115.2 51.2 115.2 115.2 115.2zM678.4 448c-76.8 0-140.8-64-140.8-140.8s64-140.8 140.8-140.8c76.8 0 140.8 64 140.8 140.8s-64 140.8-140.8 140.8v0zM785.92 243.2l-17.92-17.92 71.68-71.68 17.92 17.92-71.68 71.68z" />
<glyph unicode="&#xe92d;" d="M742.4 499.2c15.36 0 25.6-10.24 25.6-25.6v-307.2c0-28.16-23.040-51.2-51.2-51.2h-409.6c-28.16 0-51.2 23.040-51.2 51.2v307.2c0 15.36 10.24 25.6 25.6 25.6h460.8zM742.4 524.8h-460.8c-28.16 0-51.2-23.040-51.2-51.2v-307.2c0-43.52 33.28-76.8 76.8-76.8h409.6c43.52 0 76.8 33.28 76.8 76.8v307.2c0 28.16-23.040 51.2-51.2 51.2v0z" />
<glyph unicode="&#xe92e;" d="M512 396.8c15.36 0 25.6-10.24 25.6-25.6 0-20.48-15.36-61.44-25.6-74.24-10.24 12.8-25.6 53.76-25.6 74.24 0 15.36 10.24 25.6 25.6 25.6zM512 422.4c-28.16 0-51.2-23.040-51.2-51.2s23.040-102.4 51.2-102.4c28.16 0 51.2 74.24 51.2 102.4s-23.040 51.2-51.2 51.2v0z" />
<glyph unicode="&#xe92f;" d="M358.4 499.2v102.4c0 84.48 69.12 153.6 153.6 153.6s153.6-69.12 153.6-153.6v-102.4h25.6v102.4c0 99.84-79.36 179.2-179.2 179.2s-179.2-79.36-179.2-179.2v-102.4h25.6z" />
<glyph unicode="&#xe930;" glyph-name="mail" d="M768 640c28.16 0 51.2-23.040 51.2-51.2v-307.2c0-28.16-23.040-51.2-51.2-51.2h-512c-28.16 0-51.2 23.040-51.2 51.2v307.2c0 28.16 23.040 51.2 51.2 51.2h512zM768 665.6h-512c-43.52 0-76.8-33.28-76.8-76.8v-307.2c0-43.52 33.28-76.8 76.8-76.8h512c43.52 0 76.8 33.28 76.8 76.8v307.2c0 43.52-33.28 76.8-76.8 76.8v0zM750.080 593.92l-238.080-238.080-238.080 238.080-17.92-17.92 256-256 256 256z" />
<glyph unicode="&#xe931;" glyph-name="myaccount" d="M512 755.2c99.84 0 179.2-79.36 179.2-179.2s-79.36-179.2-179.2-179.2c-99.84 0-179.2 79.36-179.2 179.2s79.36 179.2 179.2 179.2zM512 780.8c-112.64 0-204.8-92.16-204.8-204.8s92.16-204.8 204.8-204.8c112.64 0 204.8 92.16 204.8 204.8s-92.16 204.8-204.8 204.8v0zM204.8 89.6c35.84 161.28 135.68 281.6 307.2 281.6s271.36-120.32 307.2-281.6h25.6c-35.84 174.080-148.48 307.2-332.8 307.2-186.88 0-296.96-133.12-332.8-307.2h25.6z" />
<glyph unicode="&#xe932;" glyph-name="order" d="M716.8 729.6c28.16 0 51.2-23.040 51.2-51.2v-537.6h-435.2c-28.16 0-51.2 23.040-51.2 51.2v537.6h435.2zM716.8 755.2h-460.8v-563.2c0-43.52 33.28-76.8 76.8-76.8h460.8v563.2c0 43.52-33.28 76.8-76.8 76.8v0zM537.6 601.6h-153.6v-25.6h153.6v25.6zM614.4 499.2h-230.4v-25.6h230.4v25.6zM614.4 396.8h-230.4v-25.6h230.4v25.6zM614.4 294.4h-230.4v-25.6h230.4v25.6z" />
<glyph unicode="&#xe933;" glyph-name="wishlist" d="M665.6 729.6c99.84 0 179.2-79.36 179.2-179.2 0-166.4-268.8-360.96-332.8-404.48-64 43.52-332.8 238.080-332.8 404.48 0 99.84 79.36 179.2 179.2 179.2 51.2 0 99.84-23.040 133.12-61.44l20.48-23.040 20.48 23.040c33.28 38.4 81.92 61.44 133.12 61.44zM665.6 755.2c-61.44 0-115.2-28.16-153.6-69.12-38.4 40.96-92.16 69.12-153.6 69.12-112.64 0-204.8-92.16-204.8-204.8 0-204.8 358.4-435.2 358.4-435.2s358.4 230.4 358.4 435.2c0 112.64-92.16 204.8-204.8 204.8v0z" />
<glyph unicode="&#xe934;" glyph-name="point" d="M627.2 381.44c0-48.64-46.080-87.040-102.4-87.040-51.2 0-94.72 33.28-99.84 76.8h25.6c7.68-28.16 38.4-51.2 74.24-51.2 43.52 0 76.8 28.16 76.8 64 0 71.68-179.2 17.92-179.2 128 0 48.64 46.080 89.6 102.4 89.6 51.2 0 94.72-33.28 99.84-76.8h-25.6c-7.68 28.16-38.4 51.2-74.24 51.2-43.52 0-76.8-28.16-76.8-64 0-84.48 179.2-23.040 179.2-130.56zM524.8 755.2c176.64 0 320-143.36 320-320s-143.36-320-320-320-320 143.36-320 320 143.36 320 320 320zM524.8 780.8c-192 0-345.6-153.6-345.6-345.6s153.6-345.6 345.6-345.6c192 0 345.6 153.6 345.6 345.6s-153.6 345.6-345.6 345.6v0zM537.6 652.8h-25.6v-76.8h25.6v76.8zM537.6 320h-25.6v-76.8h25.6v76.8z" />
<glyph unicode="&#xe935;" d="M844.8 704v-435.2h-238.080l-94.72-94.72-94.72 94.72h-238.080v435.2h665.6zM870.4 729.6h-716.8v-486.4h253.44l104.96-104.96 104.96 104.96h253.44v486.4z" />
<glyph unicode="&#xe936;" d="M332.8 524.8c15.36 0 25.6-10.24 25.6-25.6s-10.24-25.6-25.6-25.6c-15.36 0-25.6 10.24-25.6 25.6s10.24 25.6 25.6 25.6zM332.8 550.4c-28.16 0-51.2-23.040-51.2-51.2s23.040-51.2 51.2-51.2c28.16 0 51.2 23.040 51.2 51.2s-23.040 51.2-51.2 51.2v0z" />
<glyph unicode="&#xe937;" d="M512 524.8c15.36 0 25.6-10.24 25.6-25.6s-10.24-25.6-25.6-25.6c-15.36 0-25.6 10.24-25.6 25.6s10.24 25.6 25.6 25.6zM512 550.4c-28.16 0-51.2-23.040-51.2-51.2s23.040-51.2 51.2-51.2c28.16 0 51.2 23.040 51.2 51.2s-23.040 51.2-51.2 51.2v0z" />
<glyph unicode="&#xe938;" d="M691.2 524.8c15.36 0 25.6-10.24 25.6-25.6s-10.24-25.6-25.6-25.6c-15.36 0-25.6 10.24-25.6 25.6s10.24 25.6 25.6 25.6zM691.2 550.4c-28.16 0-51.2-23.040-51.2-51.2s23.040-51.2 51.2-51.2c28.16 0 51.2 23.040 51.2 51.2s-23.040 51.2-51.2 51.2v0z" />
<glyph unicode="&#xe939;" glyph-name="search" d="M281.6 650.24c104.96 104.96 276.48 104.96 378.88 0 104.96-104.96 104.96-276.48 0-378.88-102.4-104.96-273.92-104.96-378.88 0s-104.96 273.92 0 378.88zM263.68 668.16c-115.2-115.2-115.2-302.080 0-417.28s302.080-115.2 417.28 0c115.2 115.2 115.2 302.080 0 417.28s-302.080 115.2-417.28 0v0zM670.72 279.040l-17.92-17.92 199.68-199.68 17.92 20.48-199.68 197.12z" />
<glyph unicode="&#xe93a;" glyph-name="share" d="M704 729.6c48.64 0 89.6-40.96 89.6-89.6s-40.96-89.6-89.6-89.6-89.6 40.96-89.6 89.6 40.96 89.6 89.6 89.6zM704 755.2c-64 0-115.2-51.2-115.2-115.2s51.2-115.2 115.2-115.2c64 0 115.2 51.2 115.2 115.2s-51.2 115.2-115.2 115.2v0zM320 524.8c48.64 0 89.6-40.96 89.6-89.6s-40.96-89.6-89.6-89.6-89.6 40.96-89.6 89.6 40.96 89.6 89.6 89.6zM320 550.4c-64 0-115.2-51.2-115.2-115.2s51.2-115.2 115.2-115.2c64 0 115.2 51.2 115.2 115.2s-51.2 115.2-115.2 115.2v0zM704 320c48.64 0 89.6-40.96 89.6-89.6s-40.96-89.6-89.6-89.6-89.6 40.96-89.6 89.6 40.96 89.6 89.6 89.6zM704 345.6c-64 0-115.2-51.2-115.2-115.2s51.2-115.2 115.2-115.2c64 0 115.2 51.2 115.2 115.2s-51.2 115.2-115.2 115.2v0zM601.6 611.84l-199.68-115.2 12.8-23.040 199.68 115.2-12.8 23.040zM412.16 407.040l-12.8-23.040 199.68-115.2 12.8 23.040-199.68 115.2z" />
<glyph unicode="&#xe93b;" glyph-name="sidebar" d="M230.4 601.6h588.8v-25.6h-588.8v25.6zM230.4 448h588.8v-25.6h-588.8v25.6zM230.4 294.4h588.8v-25.6h-588.8v25.6z" />
<glyph unicode="&#xe93c;" glyph-name="signout" d="M737.28 675.84l-20.48-17.92c61.44-53.76 102.4-133.12 102.4-222.72 0-161.28-133.12-294.4-294.4-294.4s-294.4 133.12-294.4 294.4c0 89.6 38.4 166.4 102.4 222.72l-17.92 17.92c-69.12-58.88-110.080-145.92-110.080-240.64 0-176.64 143.36-320 320-320s320 143.36 320 320c0 94.72-40.96 181.76-107.52 240.64zM512 755.2h25.6v-281.6h-25.6v281.6z" />
<glyph unicode="&#xe93d;" glyph-name="whouse" d="M512 755.2c128 0 230.4-102.4 230.4-230.4 0-99.84-151.040-302.080-230.4-396.8-79.36 94.72-230.4 296.96-230.4 396.8 0 128 102.4 230.4 230.4 230.4zM512 780.8c-140.8 0-256-115.2-256-256s256-435.2 256-435.2 256 294.4 256 435.2c0 140.8-115.2 256-256 256v0zM512 576c28.16 0 51.2-23.040 51.2-51.2s-23.040-51.2-51.2-51.2-51.2 23.040-51.2 51.2 23.040 51.2 51.2 51.2zM512 601.6c-43.52 0-76.8-33.28-76.8-76.8s33.28-76.8 76.8-76.8c43.52 0 76.8 33.28 76.8 76.8s-33.28 76.8-76.8 76.8v0z" />
<glyph unicode="&#xe93e;" glyph-name="tag" d="M867.84 471.040l-378.88-378.88-71.68 71.68c35.84 46.080 33.28 112.64-7.68 153.6s-107.52 43.52-153.6 7.68l-71.68 71.68 376.32 381.44 71.68-71.68c-35.84-46.080-33.28-112.64 7.68-153.6s107.52-43.52 153.6-7.68l74.24-74.24zM903.68 471.040l-110.080 110.080c-2.56-2.56-5.12-7.68-7.68-10.24-35.84-35.84-92.16-35.84-125.44 0-35.84 35.84-35.84 92.16 0 125.44 2.56 2.56 7.68 5.12 10.24 7.68l-110.080 110.080-414.72-414.72 110.080-110.080c2.56 2.56 5.12 7.68 7.68 10.24 35.84 35.84 92.16 35.84 125.44 0s35.84-92.16 0-125.44c-2.56-2.56-7.68-5.12-10.24-7.68l110.080-110.080 414.72 414.72zM542.72 542.72l-125.44-125.44 17.92-17.92 125.44 125.44-17.92 17.92zM614.4 471.040l-125.44-125.44 17.92-17.92 125.44 125.44-17.92 17.92z" />
<glyph unicode="&#xe93f;" glyph-name="checkbox" d="M793.6 729.6c15.36 0 25.6-10.24 25.6-25.6v-537.6c0-15.36-10.24-25.6-25.6-25.6h-537.6c-15.36 0-25.6 10.24-25.6 25.6v537.6c0 15.36 10.24 25.6 25.6 25.6h537.6zM793.6 755.2h-537.6c-28.16 0-51.2-23.040-51.2-51.2v-537.6c0-28.16 23.040-51.2 51.2-51.2h537.6c28.16 0 51.2 23.040 51.2 51.2v537.6c0 28.16-23.040 51.2-51.2 51.2v0z" />
<glyph unicode="&#xe940;" glyph-name="checkboxs" d="M351.562 482.922l144.814-144.814-18.102-18.102-144.814 144.814 18.102 18.102zM713.723 590.624l18.102-18.102-253.425-253.425-18.102 18.102 253.425 253.425zM793.6 729.6c15.36 0 25.6-10.24 25.6-25.6v-537.6c0-15.36-10.24-25.6-25.6-25.6h-537.6c-15.36 0-25.6 10.24-25.6 25.6v537.6c0 15.36 10.24 25.6 25.6 25.6h537.6zM793.6 755.2h-537.6c-28.16 0-51.2-23.040-51.2-51.2v-537.6c0-28.16 23.040-51.2 51.2-51.2h537.6c28.16 0 51.2 23.040 51.2 51.2v537.6c0 28.16-23.040 51.2-51.2 51.2v0z" />
<glyph unicode="&#xe941;" glyph-name="delete" d="M524.8 755.2c176.64 0 320-143.36 320-320s-143.36-320-320-320-320 143.36-320 320 143.36 320 320 320zM524.8 780.8c-192 0-345.6-153.6-345.6-345.6s153.6-345.6 345.6-345.6c192 0 345.6 153.6 345.6 345.6s-153.6 345.6-345.6 345.6v0zM358.4 448h332.8v-25.6h-332.8v25.6z" />
<glyph unicode="&#xe942;" glyph-name="notes" d="M524.8 755.2c176.64 0 320-143.36 320-320s-143.36-320-320-320-320 143.36-320 320 143.36 320 320 320zM524.8 780.8c-192 0-345.6-153.6-345.6-345.6s153.6-345.6 345.6-345.6c192 0 345.6 153.6 345.6 345.6s-153.6 345.6-345.6 345.6v0zM512 627.2h25.6v-281.6h-25.6v281.6zM512 320h25.6v-25.6h-25.6v25.6z" />
<glyph unicode="&#xe943;" glyph-name="cross_b" d="M524.8 755.2c84.48 0 166.4-33.28 225.28-94.72 61.44-61.44 94.72-140.8 94.72-225.28s-33.28-166.4-94.72-225.28c-58.88-61.44-140.8-94.72-225.28-94.72s-166.4 33.28-225.28 94.72c-61.44 58.88-94.72 140.8-94.72 225.28s33.28 166.4 94.72 225.28c58.88 61.44 140.8 94.72 225.28 94.72zM524.8 780.8c-89.6 0-176.64-33.28-243.2-102.4-135.68-133.12-135.68-353.28 0-486.4 66.56-66.56 156.16-102.4 243.2-102.4s176.64 33.28 243.2 102.4c135.68 135.68 135.68 353.28 0 488.96-66.56 66.56-153.6 99.84-243.2 99.84v0zM632.32 560.64l-232.96-232.96 17.92-17.92 232.96 232.96-17.92 17.92zM417.28 560.64l-17.92-17.92 232.96-232.96 17.92 17.92-232.96 232.96z" />
<glyph unicode="&#xe944;" d="M524.8 755.2c176.64 0 320-143.36 320-320s-143.36-320-320-320-320 143.36-320 320 143.36 320 320 320zM524.8 780.8c-192 0-345.6-153.6-345.6-345.6s153.6-345.6 345.6-345.6 345.6 153.6 345.6 345.6c0 192-153.6 345.6-345.6 345.6v0z" />
<glyph unicode="&#xe945;" d="M665.6 435.2c0-77.762-63.038-140.8-140.8-140.8s-140.8 63.038-140.8 140.8c0 77.762 63.038 140.8 140.8 140.8s140.8-63.038 140.8-140.8z" />
<glyph unicode="&#xe946;" glyph-name="radio" d="M524.8 755.2c176.64 0 320-143.36 320-320s-143.36-320-320-320-320 143.36-320 320 143.36 320 320 320zM524.8 780.8c-192 0-345.6-153.6-345.6-345.6s153.6-345.6 345.6-345.6c192 0 345.6 153.6 345.6 345.6s-153.6 345.6-345.6 345.6v0z" />
<glyph unicode="&#xe947;" d="M524.8 755.2c176.64 0 320-143.36 320-320s-143.36-320-320-320-320 143.36-320 320 143.36 320 320 320zM524.8 780.8c-192 0-345.6-153.6-345.6-345.6s153.6-345.6 345.6-345.6c192 0 345.6 153.6 345.6 345.6s-153.6 345.6-345.6 345.6v0z" />
<glyph unicode="&#xe948;" d="M362.128 483.712l144.814-144.814-18.102-18.102-144.814 144.814 18.102 18.102z" />
<glyph unicode="&#xe949;" d="M724.289 591.414l18.102-18.102-253.425-253.425-18.102 18.102 253.425 253.425z" />
<glyph unicode="&#xe94a;" glyph-name="left" d="M663.852 150.025l-307.73 307.73 18.102 18.102 307.73-307.73-18.102-18.102zM364.245 466.181l307.73 307.73 18.102-18.102-307.73-307.73-18.102 18.102z" />
<glyph unicode="&#xe94b;" glyph-name="top" d="M221.162 321.804l307.73 307.73 18.102-18.102-307.73-307.73-18.102 18.102zM537.068 621.547l307.73-307.73-18.102-18.102-307.73 307.73 18.102 18.102z" />
<glyph unicode="&#xe94c;" glyph-name="check" d="M222.784 540.333l253.425-253.425-18.102-18.102-253.425 253.425 18.102 18.102zM801.407 648.807l18.102-18.102-362.035-362.035-18.102 18.102 362.035 362.035z" />
<glyph unicode="&#xe94d;" glyph-name="bottom" d="M239.604 620.325l307.73-307.73-18.102-18.102-307.73 307.73 18.102 18.102zM518.625 320.584l307.73 307.73 18.102-18.102-307.73-307.73-18.102 18.102z" />
<glyph unicode="&#xe94e;" glyph-name="minus" d="M230.4 473.6h588.8v-25.6h-588.8v25.6z" />
<glyph unicode="&#xe94f;" glyph-name="cross" d="M325.681 678.029l416.34-416.34-18.102-18.102-416.34 416.34 18.102 18.102zM723.919 678.029l18.102-18.102-416.34-416.34-18.102 18.102 416.34 416.34z" />
<glyph unicode="&#xe950;" glyph-name="plus" d="M230.4 473.6h588.8v-25.6h-588.8v25.6zM512 755.2h25.6v-588.8h-25.6v588.8z" />
<glyph unicode="&#xe951;" glyph-name="right" d="M367.255 167.238l307.73 307.73 18.102-18.102-307.73-307.73-18.102 18.102zM665.014 448.451l-307.73 307.73 18.102 18.102 307.73-307.73-18.102-18.102z" />
<glyph unicode="&#xe952;" glyph-name="wishlists" d="M665.6 755.2c-61.44 0-115.2-28.16-153.6-69.12-38.4 40.96-92.16 69.12-153.6 69.12-112.64 0-204.8-92.16-204.8-204.8 0-204.8 358.4-435.2 358.4-435.2s358.4 230.4 358.4 435.2c0 112.64-92.16 204.8-204.8 204.8v0z" />
<glyph unicode="&#xe953;" glyph-name="load" d="M499.008 82.624c-46.208-0.288-91.872 11.2-133.632 29.76-41.792 18.496-79.648 45.248-110.912 78.080s-55.872 71.616-72 113.408c-16.192 41.856-23.872 86.592-22.72 131.136 1.088 44.512 10.88 88.448 28.736 128.608 17.824 40.224 43.616 76.64 75.232 106.688s68.928 53.696 109.248 69.216c40.224 15.552 83.264 22.848 126.112 21.728s84.992-10.56 123.584-27.744c38.624-17.152 73.568-41.984 102.464-72.384s51.552-66.272 66.368-104.896c14.912-38.624 21.856-79.968 20.736-121.152h0.192c-0.128-1.44-0.192-2.88-0.192-4.352 0-26.912 20.384-49.024 46.528-51.872-0.064-0.32-0.192-0.608-0.224-0.96 0.864-0.064 1.728-0.16 2.624-0.256 0.032 0.32 0.128 0.64 0.192 0.96 0.992 0 2.016-0.064 3.072-0.064 28.832 0 52.192 23.36 52.192 52.192 0 1.472-0.096 2.88-0.192 4.32h0.192c-1.056 54.496-12.864 108.864-34.752 158.592-21.728 49.728-53.376 94.784-92.192 132.032s-84.8 66.72-134.56 86.144c-49.76 19.52-103.264 28.864-156.096 27.712-52.864-1.056-105.472-12.576-153.632-33.728-48.096-21.088-91.744-51.744-127.808-89.344s-64.544-82.112-83.328-130.336c-18.848-48.128-27.84-99.904-26.688-151.072 1.088-51.2 12.224-102.080 32.768-148.608 20.416-46.56 50.112-88.768 86.496-123.584s79.488-62.4 126.112-80.512c46.592-18.24 96.576-26.848 146.112-25.696 49.504 1.024 98.624 11.84 143.552 31.68s85.696 48.544 119.36 83.744c14.912 15.552 28.16 32.576 40.064 50.432-2.944 1.6-108.416-138.816-302.976-139.84z" />
<glyph unicode="&#xe954;" glyph-name="multi_select" d="M177.6 130.592h686.048v686.016l-686.048-686.016zM630.944 244.8l-110.336 109.792 26.272 26.144 84.032-83.648 148.928 148.16 26.304-26.144-175.168-174.272z" />
<glyph unicode="&#xe955;" glyph-name="one_star" d="M853.824 527.36c-3.264 9.92-11.84 17.152-22.144 18.72l-203.84 29.536-91.136 184.704c-4.64 9.376-14.176 15.392-24.704 15.392-10.464 0-20.032-5.984-24.64-15.392l-91.136-184.704-203.808-29.536c-10.432-1.568-19.008-8.8-22.24-18.72s-0.576-20.928 6.944-28.256l147.488-143.68-34.816-203.008c-1.728-10.304 2.496-20.8 10.944-26.88 8.48-6.112 19.712-6.976 28.992-2.144l182.208 95.808 182.336-95.808c4.032-2.176 8.416-3.104 12.832-3.104 5.696 0 11.328 1.728 16.192 5.248 8.416 6.080 12.672 16.544 10.848 26.88l-34.752 203.008 147.456 143.68c7.488 7.36 10.176 18.368 6.976 28.256v0 0z" />
<glyph unicode="&#xe956;" glyph-name="stars" horiz-adv-x="3072" d="M554.624 507.904c-2.464 7.488-8.928 12.96-16.768 14.144l-153.888 22.304-68.8 139.456c-3.52 7.072-10.688 11.584-18.624 11.584s-15.136-4.544-18.624-11.584l-68.8-139.456-153.888-22.304c-7.808-1.216-14.304-6.72-16.768-14.144s-0.384-15.808 5.248-21.312l111.36-108.48-26.304-153.248c-1.344-7.808 1.888-15.68 8.256-20.32 6.432-4.608 14.912-5.248 21.92-1.6l137.6 72.384 137.6-72.384c3.072-1.632 6.336-2.336 9.664-2.336 4.288 0 8.64 1.312 12.224 3.936 6.4 4.64 9.568 12.512 8.224 20.32l-26.272 153.248 111.328 108.48c5.696 5.504 7.744 13.856 5.312 21.312v0 0zM1174.336 507.904c-2.432 7.488-8.896 12.96-16.736 14.144l-153.888 22.304-68.832 139.456c-3.456 7.072-10.688 11.584-18.624 11.584s-15.104-4.544-18.656-11.584l-68.8-139.456-153.92-22.304c-7.808-1.216-14.304-6.72-16.768-14.144s-0.416-15.808 5.248-21.312l111.392-108.48-26.304-153.248c-1.344-7.808 1.888-15.68 8.256-20.32s14.912-5.248 21.888-1.6l137.632 72.384 137.632-72.384c3.040-1.632 6.336-2.336 9.664-2.336 4.288 0 8.576 1.312 12.224 3.936 6.432 4.64 9.632 12.512 8.256 20.32l-26.304 153.248 111.36 108.48c5.696 5.504 7.712 13.856 5.28 21.312v0 0zM1794.080 507.904c-2.432 7.488-8.96 12.96-16.768 14.144l-153.856 22.304-68.8 139.456c-3.52 7.072-10.72 11.584-18.624 11.584s-15.136-4.544-18.656-11.584l-68.8-139.456-153.856-22.304c-7.872-1.216-14.336-6.72-16.768-14.144s-0.416-15.808 5.28-21.312l111.328-108.48-26.304-153.248c-1.312-7.808 1.888-15.68 8.256-20.32s14.912-5.248 21.92-1.6l137.6 72.384 137.632-72.384c3.008-1.632 6.336-2.336 9.664-2.336 4.288 0 8.576 1.312 12.224 3.936 6.4 4.64 9.568 12.512 8.256 20.32l-26.272 153.248 111.328 108.48c5.696 5.504 7.744 13.856 5.248 21.312v0 0zM2413.824 507.904c-2.464 7.488-8.992 12.96-16.768 14.144l-153.888 22.304-68.8 139.456c-3.488 7.072-10.688 11.584-18.624 11.584s-15.104-4.544-18.624-11.584l-68.768-139.456-153.92-22.304c-7.872-1.216-14.368-6.72-16.768-14.144-2.464-7.488-0.448-15.808 5.216-21.312l111.392-108.48-26.304-153.248c-1.312-7.808 1.888-15.68 8.288-20.32s14.88-5.248 21.856-1.6l137.6 72.384 137.632-72.384c3.072-1.632 6.368-2.336 9.664-2.336 4.32 0 8.576 1.312 12.256 3.936 6.368 4.64 9.568 12.512 8.192 20.32l-26.24 153.248 111.328 108.48c5.632 5.504 7.744 13.856 5.28 21.312v0 0zM3033.536 507.904c-2.464 7.488-8.96 12.96-16.736 14.144l-153.92 22.304-68.8 139.456c-3.52 7.072-10.688 11.584-18.656 11.584s-15.104-4.544-18.624-11.584l-68.8-139.456-153.888-22.304c-7.872-1.216-14.336-6.72-16.768-14.144s-0.448-15.808 5.216-21.312l111.392-108.48-26.304-153.248c-1.28-7.808 1.856-15.68 8.32-20.32 6.368-4.608 14.88-5.248 21.856-1.6l137.568 72.384 137.664-72.384c3.040-1.632 6.336-2.336 9.664-2.336 4.32 0 8.608 1.312 12.256 3.936 6.368 4.64 9.568 12.512 8.192 20.32l-26.24 153.248 111.36 108.48c5.696 5.504 7.744 13.856 5.28 21.312v0 0z" />
<glyph unicode="&#xe957;" glyph-name="sale" d="M825.472 813.6v-649.92c1.6-58.688-14.4-81.088-51.904-81.088-16.416-1.664-50.24 6.848-76.352 23.232-60.544 34.496-88.224 50.272-130.592 72.864-31.296 16.832-80.096 14.816-110.784-0.096-30.56-16.352-95.456-52-128.96-72.768-40.992-26.976-63.392-23.232-73.12-23.232-39.2 0-56.832 25.664-55.168 81.088v649.92h626.912z" />
<glyph unicode="&#xe958;" glyph-name="facebook" d="M578.24 27.2h-157.728v420.832h-105.152v144.992l105.152 0.064-0.192 85.44c0 118.24 32.064 190.304 171.456 190.304h116.032v-145.024h-72.512c-54.304 0-56.896-20.288-56.896-58.144l-0.192-72.576h130.4l-15.36-145.024-114.944-0.032-0.064-420.832z" />
<glyph unicode="&#xe959;" glyph-name="linkedin" d="M302.72 79.424h-157.952v526.528h157.952v-526.528zM881.888 79.424h-157.952v281.28c0 73.28-26.112 109.824-77.856 109.824-41.088 0-67.040-20.416-80.16-61.344 0-66.464 0-329.728 0-329.728h-157.952c0 0 2.144 473.92 0 526.56h124.704l9.664-105.312h3.264c32.416 52.672 84.192 88.32 155.104 88.32 53.984 0 97.632-15.008 131.008-52.736 33.504-37.728 50.208-88.384 50.208-159.552v-297.312zM305.344 737.6c0-43.648-36.544-79.008-81.632-79.008s-81.632 35.36-81.632 79.008c0 43.616 36.544 78.944 81.6 78.944s81.664-35.296 81.664-78.944v0z" />
<glyph unicode="&#xe95a;" glyph-name="tumblr" d="M563.52 499.584v-188.608c0-47.904-0.64-75.456 4.448-89.12 5.056-13.44 17.632-27.488 31.456-35.424 18.144-11.040 39.104-16.544 62.528-16.544 41.76 0 66.496 5.536 107.744 32.672v-124.096c-35.264-16.448-65.984-26.272-94.496-32.864-28.704-6.752-59.584-10.048-92.64-10.048-37.856 0-60 4.8-88.992 14.272s-53.696 23.264-74.144 40.768c-20.512 17.664-34.624 36.352-42.528 56.256-7.968 19.776-11.872 48.704-11.872 86.304v289.344h-110.784v116.8c32.448 10.528 68.672 25.664 91.712 45.312 23.136 19.744 41.664 43.2 55.744 70.816 13.984 27.552 23.616 62.656 28.864 105.152h132.96v-206.208h206.144v-154.72l-206.208 0.032z" />
<glyph unicode="&#xe95b;" glyph-name="Bing" d="M885.312 511.808l-6.336 13.12-10.56 8.288c-13.856 10.816-83.872-0.8-102.752 16.352-13.344 12.32-15.424 34.592-19.456 64.544-7.488 58.144-12.32 61.184-21.376 80.864-32.96 70.016-122.4 122.688-183.872 129.984h-166.496c-131.008 0-238.016-107.328-238.016-238.4v-277.856c0-130.72 107.008-237.76 238.016-237.76h273.6c130.944 0 237.248 107.072 238.016 237.76l1.504 192.48-2.24 10.56zM377.44 630.24h132c25.184 0 45.6-20.416 45.6-45.344s-20.416-45.632-45.6-45.632h-132c-25.152 0-45.536 20.704-45.536 45.632s20.384 45.344 45.536 45.344v0zM645.696 267.008h-268.256c-25.152 0-45.536 20.672-45.536 45.312 0 24.96 20.384 45.376 45.536 45.376h268.256c24.992 0 45.376-20.416 45.376-45.376 0-24.672-20.416-45.312-45.376-45.312v0z" />
<glyph unicode="&#xe95c;" glyph-name="vk" d="M989.312 681.568c7.68-21.312-17.248-70.112-74.752-146.56-8-10.624-18.784-24.768-32.416-42.368-25.92-33.216-40.896-54.976-44.864-65.248-5.696-13.632-3.392-27.104 6.976-40.384 5.632-6.976 19.104-20.576 40.352-40.864h0.544l1.952-1.984c46.88-43.52 78.56-80.256 95.2-110.144 1.024-1.632 2.112-3.744 3.264-6.208 1.12-2.496 2.304-6.912 3.488-13.184 1.184-6.336 1.088-11.968-0.288-16.96s-5.504-9.536-12.448-13.728c-6.944-4.128-16.704-6.208-29.376-6.208l-127.552-1.984c-8-1.632-17.312-0.832-27.968 2.496-10.592 3.328-19.264 6.976-25.92 10.976l-9.984 5.952c-9.984 6.976-21.6 17.6-34.88 31.904s-24.64 27.2-34.112 38.624c-9.44 11.456-19.616 21.088-30.4 28.928s-20.16 10.4-28.16 7.744c-0.992-0.32-2.336-0.896-4-1.728s-4.48-3.264-8.48-7.232c-4-3.968-7.616-8.896-10.72-14.688s-5.952-14.432-8.48-25.92c-2.528-11.456-3.616-24.352-3.264-38.592 0-5.024-0.576-9.568-1.76-13.728-1.152-4.16-2.4-7.232-3.712-9.216l-1.984-2.464c-5.952-6.336-14.784-9.984-26.368-11.008h-57.344c-23.616-1.344-47.84 1.472-72.768 8.224-24.896 6.848-46.784 15.648-65.536 26.432s-35.904 21.792-51.328 32.896c-15.456 11.168-27.168 20.704-35.168 28.64l-12.448 12c-3.296 3.296-7.872 8.288-13.664 14.976-5.824 6.624-17.664 21.728-35.68 45.344-17.952 23.584-35.552 48.672-52.8 75.232s-37.632 61.632-61.056 105.152c-23.456 43.552-45.12 88.736-65.056 135.584-1.984 5.312-2.976 9.792-2.976 13.44s0.512 6.304 1.472 8l2.016 2.976c4.96 6.304 14.432 9.44 28.384 9.44l136.576 1.024c3.968-0.672 7.84-1.728 11.456-3.264 3.68-1.504 6.368-2.912 8-4.256l2.496-1.504c5.344-3.648 9.312-8.992 11.968-15.936 6.656-16.576 14.304-33.792 22.944-51.584s15.424-31.296 20.448-40.64l7.968-14.4c9.664-19.936 18.944-37.184 27.936-51.872 8.992-14.592 17.024-25.984 24.16-34.112s14.016-14.528 20.672-19.168c6.656-4.672 12.256-6.976 16.96-6.976s9.12 0.832 13.44 2.496c0.672 0.32 1.504 1.152 2.496 2.496s2.976 4.96 5.952 10.976c3.008 5.952 5.28 13.792 6.752 23.424s3.072 23.072 4.8 40.384c1.632 17.248 1.632 38.016 0 62.272-0.704 13.28-2.176 25.408-4.512 36.384-2.336 11.008-4.672 18.624-7.008 22.944l-2.976 5.952c-8.256 11.264-22.4 18.464-42.336 21.44-4.32 0.672-3.488 4.672 2.496 11.968 5.632 6.272 11.968 11.296 18.944 14.976 17.6 8.608 57.28 12.608 119.104 11.968 27.2-0.32 49.664-2.496 67.264-6.464 6.656-1.632 12.224-3.904 16.704-6.72s7.904-6.848 10.208-11.968 4.064-10.432 5.216-15.936c1.216-5.472 1.76-13.024 1.76-22.72 0-9.632-0.192-18.752-0.512-27.392s-0.736-20.288-1.28-35.136c-0.48-14.816-0.736-28.512-0.736-41.12 0-3.648-0.192-10.592-0.48-20.928-0.352-10.272-0.448-18.272-0.32-23.872 0.192-5.664 0.768-12.352 1.76-20.192s2.88-14.304 5.728-19.424c2.816-5.152 6.56-9.216 11.2-12.224 2.656-0.672 5.472-1.344 8.48-1.984s7.328 1.216 12.96 5.504c5.664 4.288 11.968 10.048 18.944 17.216 6.976 7.104 15.648 18.272 25.92 33.344s21.6 32.96 33.888 53.6c19.904 34.56 37.696 71.968 53.344 112.128 1.312 3.392 2.976 6.272 4.992 8.768s3.808 4.224 5.44 5.248l1.984 1.472 2.464 1.28c0 0 2.208 0.512 6.496 1.504s7.648 1.088 9.984 0.256l143.552 0.992c12.96 1.696 23.616 1.248 31.904-1.248s13.472-5.248 15.456-8.256l3.008-5.152z" />
<glyph unicode="&#xe95d;" glyph-name="instagram" d="M706.368 448.032c0-107.328-87.040-194.368-194.368-194.368s-194.368 86.976-194.368 194.368c0 12.736 1.28 25.248 3.648 37.344h-130.72v-258.368c0-55.456 44.896-100.448 100.448-100.448h441.92c55.456 0 100.448 44.992 100.448 100.448v258.368h-130.656c2.368-12.096 3.616-24.608 3.616-37.344v0zM732.96 769.44h-441.92c-55.488 0-100.448-44.992-100.448-100.48v-108.832h162.688c35.168 49.696 93.12 82.176 158.688 82.176s123.584-32.48 158.72-82.176h162.688v108.832c0.032 55.456-44.992 100.48-100.416 100.48v0zM782.112 645.312c0-9.888-8.032-17.92-17.952-17.92h-53.76c-9.856 0-17.952 8.096-17.952 17.92v53.824c0 9.92 8.096 17.92 17.952 17.92h53.76c9.92 0 17.952-8.032 17.952-17.92v-53.824zM631.616 448.032c0 66.048-53.568 119.584-119.616 119.584s-119.616-53.536-119.616-119.584c0-66.112 53.568-119.616 119.616-119.616s119.616 53.504 119.616 119.616v0z" />
<glyph unicode="&#xe95e;" glyph-name="google-plus" d="M612.288 821.632h-206.528c-54.144 0-122.304-7.84-179.52-53.92-43.136-36.288-64.192-86.336-64.192-131.424 0-76.48 60.224-153.952 166.464-153.952 10.048 0 21.056 0.96 32.128 1.92-5.024-11.712-10.048-21.536-10.048-38.208 0-30.4 16-49.024 30.016-66.656-45.088-2.944-129.344-7.84-191.488-45.12-59.2-34.304-77.248-84.32-77.248-119.616 0-72.576 70.176-140.256 215.616-140.256 172.48 0 263.744 93.184 263.744 185.344 0 67.648-40 101.024-84.192 137.28l-36.128 27.456c-11.040 8.832-26.048 20.608-26.048 42.176s15.040 35.296 28.096 48.064c42.080 32.352 84.192 66.656 84.192 139.232 0 74.496-48.128 113.728-71.2 132.384h62.176l64.16 35.36zM524.064 221.408c0-60.736-51.136-105.888-147.424-105.888-107.296 0-176.512 50.016-176.512 119.68s64.192 93.12 86.24 100.96c42.112 13.728 96.288 15.68 105.312 15.68 10.016 0 15.040 0 23.008-0.96 76.288-52.928 109.376-79.392 109.376-129.472v0zM443.872 537.216c-16.096-15.648-43.2-27.456-68.288-27.456-86.208 0-125.344 108.864-125.344 174.56 0 25.504 4.992 51.968 22.080 72.576 16.064 19.616 44.096 32.352 70.176 32.352 83.264 0 126.368-109.824 126.368-180.416-0.032-17.664-2.016-49.056-25.024-71.616v0zM812.064 672.288v99.648h-50.016v-99.648h-100.064v-49.824h100.064v-99.648h50.016v99.648h100.064v49.824l-100.064 0.032z" />
<glyph unicode="&#xe95f;" glyph-name="bolg" d="M25.408 308.064v375.552h140.896c28.704 0 51.712-3.776 69.056-11.392s30.912-19.296 40.736-35.104 14.752-32.32 14.752-49.568c0-16.064-4.352-31.168-13.088-45.344s-21.856-25.6-39.456-34.304c22.72-6.688 40.16-18.016 52.384-34.080s18.336-35.008 18.336-56.864c0-17.6-3.712-33.952-11.168-49.056s-16.608-26.784-27.552-34.976-24.64-14.4-41.12-18.592c-16.48-4.16-36.672-6.272-60.608-6.272h-143.168zM75.104 525.824h81.216c22.048 0 37.824 1.472 47.424 4.352 12.64 3.744 22.144 9.984 28.576 18.688s9.6 19.648 9.6 32.8c0 12.48-3.008 23.456-8.96 32.928s-14.528 15.968-25.6 19.456c-11.104 3.52-30.144 5.248-57.12 5.248h-75.104v-113.472zM75.104 352.416h93.504c16.064 0 27.328 0.576 33.824 1.76 11.456 2.048 21.024 5.472 28.704 10.24s14.016 11.744 18.944 20.864c4.928 9.152 7.424 19.712 7.424 31.648 0 13.984-3.584 26.176-10.752 36.48s-17.088 17.632-29.824 21.824-31.040 6.272-54.944 6.272h-86.848v-129.088zM354.336 444.096c0 50.368 14.016 87.712 42.016 111.936 23.392 20.16 51.904 30.24 85.568 30.24 37.408 0 67.968-12.256 91.712-36.768s35.648-58.368 35.648-101.568c0-35.008-5.248-62.528-15.744-82.624s-25.792-35.648-45.888-46.752c-20.032-11.104-41.952-16.64-65.696-16.64-38.080 0-68.864 12.224-92.352 36.64s-35.264 59.584-35.264 105.504zM401.728 444.096c0-34.816 7.616-60.896 22.816-78.24s34.336-26.016 57.376-26.016c22.88 0 41.92 8.704 57.12 26.144s22.816 43.968 22.816 79.68c0 33.6-7.648 59.136-22.944 76.448s-34.272 26.016-57.024 26.016c-23.040 0-42.176-8.64-57.376-25.888s-22.784-43.296-22.784-78.144zM662.24 308.064v375.552h46.144v-375.52h-46.144zM771.392 285.504l44.832-6.656c1.856-13.824 7.104-23.904 15.616-30.24 11.456-8.544 27.072-12.832 46.912-12.832 21.312 0 37.824 4.288 49.44 12.832s19.488 20.48 23.584 35.84c2.4 9.408 3.52 29.12 3.328 59.2-20.16-23.744-45.248-35.616-75.296-35.616-37.408 0-66.368 13.504-86.848 40.48s-30.752 59.328-30.752 97.088c0 25.952 4.704 49.888 14.112 71.872s22.976 38.88 40.864 50.848c17.856 11.968 38.848 17.92 62.912 17.92 32.096 0 58.56-12.992 79.424-38.944v32.8h42.528v-235.136c0-42.368-4.288-72.384-12.928-90.048s-22.304-31.648-41.024-41.92c-18.688-10.208-41.696-15.36-69.024-15.36-32.448 0-58.688 7.296-78.656 21.888s-29.664 36.672-28.992 66.016zM809.536 448.96c0-35.68 7.072-61.76 21.248-78.144s31.936-24.576 53.312-24.576c21.184 0 38.944 8.128 53.28 24.448s21.536 41.92 21.536 76.736c0 33.312-7.392 58.432-22.144 75.328s-32.576 25.376-53.44 25.376c-20.512 0-37.888-8.32-52.256-24.992s-21.536-41.408-21.536-74.176z" />
<glyph unicode="&#xe960;" glyph-name="pinterest" d="M459.52 323.616c-13.088-66.496-27.968-120.896-44.576-163.168s-41.536-75.072-74.784-98.208c-4.032 23.136-5.536 48.576-4.544 76.288s2.496 51.616 4.544 71.776c2.016 20.128 5.792 42.816 11.328 67.968s10.816 46.848 15.904 64.96c5.024 18.112 10.784 39.52 17.344 64.192 6.528 24.64 11.328 45.536 14.368 62.688-10.080 19.136-15.104 41.28-15.104 66.464 0 25.152 4.288 48.352 12.864 69.504 8.512 21.152 22.112 37.248 40.768 48.352s39.008 12.576 61.216 4.544c21.152-9.056 32.704-24.672 34.752-46.816s-1.504-46.624-10.592-73.28c-9.056-26.688-17.6-53.152-25.664-79.328s-9.056-49.344-3.008-69.472c6.016-20.128 22.144-32.704 48.32-37.792 35.264-7.040 66.752 3.008 94.432 30.24s46.816 60.672 57.408 100.448c10.56 39.776 13.344 81.344 8.288 124.608s-19.136 76.544-42.304 99.744c-25.152 26.176-55.392 43.296-90.656 51.36s-69.504 6.816-102.72-3.776c-33.216-10.592-63.712-26.688-91.392-48.352-27.712-21.696-48.608-49.6-62.72-83.808-14.144-34.24-18.112-70.016-12.096-107.264 2.016-10.080 6.048-20.416 12.096-30.976s11.328-19.424 15.872-26.432c4.544-7.040 6.56-16.864 6.048-29.44-0.544-12.608-5.312-26.432-14.368-41.536-75.552 17.12-111.808 76.032-108.768 176.736 3.008 71.52 30.432 131.936 82.304 181.28s111.552 78.048 179.040 86.112c84.608 9.056 159.168-5.536 223.584-43.808 64.48-38.304 101.76-94.688 111.808-169.184 8.032-57.408 3.52-113.344-13.6-167.744s-46.336-98.432-87.616-132.16c-41.28-33.76-89.664-48.576-145.056-44.608-11.072 1.024-21.408 3.296-30.944 6.848-9.6 3.52-17.376 7.040-23.424 10.56s-14.144 8.8-24.16 15.84c-10.112 7.008-18.144 12.576-24.192 16.608v0z" />
<glyph unicode="&#xe961;" glyph-name="youtube_1" d="M414.144 175.072c-0.256 0.384-14.176 0.768-30.912 1.024-30.016 0.384-41.664 0.608-76.288 2.304-24.288 1.28-26.464 1.408-29.12 2.56-1.28 0.512-4.864 0.64-8.064 0.256-3.072-0.256-5.984-0.128-6.4 0.544-0.384 0.608-3.712 1.152-7.296 1.024-3.712 0-9.44 0.256-13.024 0.608-3.456 0.256-9.568 0.896-13.408 1.28-10.624 1.024-14.304 1.664-18.528 3.328-2.048 0.768-5.344 1.664-7.296 1.92-5.6 0.768-20.288 8.16-25.664 12.896-2.56 2.432-5.248 4.352-5.76 4.352-1.792 0-11.744 9.728-11.744 11.232 0 0.896-0.896 1.536-1.92 1.536-1.152 0-2.56 1.568-3.328 3.456-0.768 2.048-2.432 4.736-3.808 6.272-3.328 3.456-10.72 18.88-12.672 26.080-0.896 3.168-2.048 6.368-2.656 7.136-0.64 0.896-1.536 4.608-1.92 8.288-0.384 3.84-1.28 7.552-1.92 8.32-0.512 0.608-0.768 2.432-0.384 3.936 0.384 1.408 0.128 3.072-0.64 3.456-0.64 0.544-1.024 1.664-0.64 2.56 0.384 1.024 0 4.224-0.768 7.296-1.664 5.984-2.176 9.184-3.328 20.928-4.736 49.6-4.736 221.12 0.128 271.584 1.024 11.52 1.28 12.544 3.072 20.192 0.896 3.712 1.408 7.52 0.896 8.544-0.384 1.024-0.128 2.176 0.64 2.688 0.768 0.384 1.024 1.664 0.64 2.688s-0.256 2.784 0.384 4.096c0.64 1.152 1.536 4.736 1.92 7.936 0.384 3.072 1.536 7.936 2.688 10.592s2.304 6.528 2.56 8.544c0.256 2.048 1.536 5.248 2.944 7.168 1.28 2.048 3.456 6.4 4.736 9.824 1.28 3.328 3.456 6.784 4.736 7.52 1.28 0.896 2.304 2.176 2.304 3.072 0 0.768 1.536 2.656 3.456 4.224 1.792 1.408 3.968 3.84 4.736 5.376 0.768 1.408 2.56 3.296 3.968 4.096s3.072 2.048 3.808 2.816c2.56 2.656 19.68 13.536 26.176 16.608 2.432 1.152 5.888 2.304 7.68 2.56 1.792 0.128 6.656 1.28 10.848 2.432 8.16 2.176 20.192 3.712 27.2 3.328 2.432 0 4.992 0.256 5.76 0.768 1.536 1.024 9.056 1.536 22.88 1.536 4.096 0 8.032 0.384 8.96 0.896 1.792 1.152 2.816 1.28 26.592 2.432 56.608 2.688 87.168 3.072 216.64 3.2 128.448 0 155.936-0.512 215.36-3.2 20.704-1.024 24.928-1.408 26.72-2.432 0.736-0.512 4.736-0.896 8.672-0.896 10.336-0.128 24.288-1.024 43.2-3.072 10.752-1.152 11.36-1.28 12.8-2.176 1.536-0.768 7.936-2.432 11.488-2.944 2.784-0.384 9.952-3.456 14.048-5.984 14.816-9.472 20.576-13.664 24.8-18.272 2.656-2.944 5.856-5.76 7.008-6.112 1.152-0.512 2.048-1.664 2.048-2.688s1.536-3.712 3.456-6.016c3.712-4.32 13.152-23.488 13.152-26.688 0-1.024 0.896-3.584 1.92-5.6 2.048-3.968 3.328-9.6 3.328-14.432-0.128-1.536 0.384-3.072 1.024-3.584 0.608-0.384 0.896-1.792 0.512-3.072s0-2.816 0.64-3.2c0.768-0.384 1.024-1.92 0.608-3.2-0.384-1.408 0-4.448 0.768-6.784 1.792-5.6 2.944-14.304 4.608-35.52 2.304-30.528 3.072-133.312 1.536-197.44-1.408-51.52-2.016-62.4-4.832-75.936-0.896-3.936-1.632-8.96-1.76-10.976-0.288-2.176-0.768-4.864-1.28-6.016s-0.544-2.784 0-3.584c0.512-0.736 0.256-2.176-0.544-3.040-0.896-1.024-1.408-2.304-1.28-2.816 0.384-1.76-1.536-11.136-2.944-13.664-0.608-1.28-1.408-4.096-1.632-6.368-0.64-4.768-9.856-23.264-13.408-27.104-1.28-1.44-2.912-4.096-3.712-6.144-0.768-1.888-2.176-3.456-3.328-3.456-1.024 0-1.92-0.736-1.92-1.632 0-2.176-5.344-7.168-12.64-11.904-17.504-11.616-25.408-15.84-30.144-16.48-3.584-0.544-9.984-2.176-11.488-2.944-1.312-0.736-2.304-1.024-14.080-2.176-7.264-0.736-11.232-1.152-27.456-2.432-3.808-0.384-10.336-0.608-14.432-0.608-3.936 0-7.936-0.416-8.672-0.896-2.176-1.28-10.336-1.792-59.968-3.808-40.64-1.6-289.728-3.264-291.008-1.984zM433.728 337.376c2.176 0.896 5.888 3.072 8.192 4.768 2.304 1.632 4.832 3.040 5.76 3.040 1.28 0 4.352 1.568 14.56 7.68 1.024 0.512 5.6 2.816 10.208 4.96s10.368 5.12 12.8 6.528c2.432 1.28 5.344 2.816 6.4 3.2s5.376 2.56 9.6 4.832 9.696 5.376 12.128 6.656c2.432 1.28 5.376 2.816 6.4 3.456 1.92 1.024 10.336 4.96 14.016 6.656 1.024 0.384 5.376 2.656 9.6 4.96 6.784 3.744 11.744 6.4 18.528 9.984 1.024 0.64 4.864 2.432 8.32 4.224 3.584 1.76 7.264 3.712 8.288 4.352s3.936 2.144 6.4 3.456c4.96 2.56 17.504 9.056 20.416 10.72 1.024 0.64 4.48 2.304 7.68 3.808 3.2 1.44 6.656 3.2 7.68 3.712 3.456 2.048 8.16 4.48 16.608 8.832 4.608 2.304 9.184 4.736 10.208 5.344s3.296 1.792 5.088 2.56 4.096 1.92 5.12 2.656c0.992 0.64 4.608 2.432 8.032 3.968 3.328 1.536 5.984 3.072 5.984 3.584-0.128 0.384-1.92 1.664-4.224 2.944-2.304 1.152-10.112 5.248-17.504 9.056-37.568 19.68-45.632 23.904-48.192 25.152-6.496 2.944-9.056 4.224-16.352 8.448-4.224 2.304-9.056 4.992-10.848 5.76-3.616 1.536-6.016 2.816-17.888 9.312-4.48 2.56-8.832 4.608-9.6 4.608-0.608 0-4.48 2.048-8.288 4.48s-7.936 4.48-9.056 4.48-2.816 0.896-3.712 1.92c-0.896 1.024-2.304 1.92-3.2 1.92s-4.736 2.048-8.544 4.48c-3.712 2.56-8.16 4.832-9.952 5.344-1.792 0.384-4.096 1.408-5.12 2.304-1.024 0.768-4.48 2.816-7.68 4.48-17.632 9.344-34.368 18.016-38.336 19.936-2.432 1.152-5.376 2.56-6.4 3.2-15.2 8.448-20.448 11.104-23.392 11.872l-3.456 0.768v-261.984l4.864 2.912c2.592 1.632 6.56 3.712 8.864 4.576z" />
<glyph unicode="&#xe962;" glyph-name="youtube" d="M829.856 269.632c0-24.384-1.504-60.448-4.512-108.256-1.952-24.8-11.488-44.64-28.64-59.296s-38.24-22.496-63.104-23.488c-49.248-2.464-123.168-3.712-221.632-3.712-99.008 0-172.896 1.248-221.632 3.712-24.896 0.992-45.888 8.864-63.040 23.488s-26.72 34.496-28.736 59.296c-2.944 47.808-4.416 83.84-4.416 108.256s1.472 60.448 4.416 108.256c1.984 24.8 11.584 44.608 28.736 59.296 17.152 14.656 38.176 22.464 63.040 23.488 48.736 2.496 122.592 3.744 221.632 3.744s172.864-1.248 221.632-3.744c24.864-0.992 45.888-8.864 63.104-23.488 17.088-14.688 26.688-34.496 28.64-59.296 3.040-47.808 4.512-83.872 4.512-108.256v0zM331.424 366.656h45.504v37.312h-133.568v-37.312h44.768v-218.656h43.296v218.656h0.032zM373.92 821.12h54.464l-41.024-123.136c-2.016-5.952-4.448-12.832-7.456-20.544s-5.568-14.688-7.872-20.864c-2.24-6.24-4.096-13.088-5.568-20.544v-131.328h-53.76c0 0.512 0 12.064 0 34.688s0 43.040 0 61.184c0 18.176 0 28 0 29.472-0.96 5.952-8.16 27.136-21.632 63.424l-42.496 127.648h54.464l34.304-126.112h3.744l32.832 126.112zM447.808 148h38.048v188.8h-38.048v-143.264c-8.448-9.44-16.16-14.144-23.104-14.144-6.464 0-9.728 4.192-9.728 12.64v144.736h-38.784v-158.944c0-21.856 8.896-32.8 26.848-32.8 14.912 0 29.824 7.968 44.736 23.872v-20.896zM564.16 683.808v-120.896c0-20.896-6.144-36.8-18.624-47.776s-29.376-16.416-50.752-16.416c-20.384 0-36.896 5.824-49.6 17.536-12.672 11.68-19.008 27.488-19.008 47.424v120.896c0 19.392 6.88 34.208 20.544 44.384 13.696 10.176 30.496 15.296 50.4 15.296 18.88 0 34.784-5.472 47.744-16.448 12.864-10.944 19.328-25.632 19.328-44v0zM515.712 559.168v127.584c0 4.928-2.24 9.056-6.72 12.32-4.448 3.2-9.152 4.8-14.176 4.8-4.96 0-9.472-1.6-13.44-4.8-3.936-3.264-5.952-7.36-5.952-12.32v-127.584c0-12.96 6.464-19.392 19.392-19.392 13.952 0 20.896 6.464 20.896 19.392v0zM634.336 187.584v104.448c0 31.36-12.448 47.008-37.312 47.008-12.448 0-23.904-5.696-34.368-17.152v82.112h-38.752v-255.936h38.752v14.944c11.008-11.456 23.136-17.152 36.608-17.152 23.36-0.064 35.040 13.856 35.040 41.76v0zM594.848 290.496v-99.2c0-10.496-4.512-15.68-13.504-15.68-6.944 0-13.152 2.752-18.656 8.256v117.888c4.992 4.992 10.432 7.456 16.448 7.456 10.4 0 15.68-6.208 15.68-18.688v0zM741.056 738.24v-233.568h-47.744v26.144c-18.464-19.392-36.832-29.12-55.232-29.12-22.336 0-33.568 13.952-33.568 41.824v194.752h47.744v-179.072c0-10.432 4.192-15.68 12.704-15.68 8.384 0 17.888 5.92 28.352 17.888v176.832h47.776zM776.864 201.76v14.208h-39.552c0-1.056 0.16-4.256 0.416-9.76 0.256-5.44 0.256-9.28 0-11.552-0.32-2.24-0.896-5.056-1.856-8.608-0.992-3.456-2.752-5.952-5.184-7.456-2.496-1.504-5.984-2.208-10.432-2.208-4.992 0-8.864 1.472-11.584 4.416-2.752 3.008-4.256 5.984-4.512 9.024-0.256 2.944-0.352 7.232-0.352 12.64v35.84h73.152v47.744c0 17.408-4.768 31.040-14.208 41.056-9.408 9.952-22.848 14.944-40.256 14.944-16.96 0-31.008-5.088-42.176-15.296s-16.736-23.808-16.736-40.704v-84.352c0-17.856 4.832-32.192 14.528-42.848s23.488-16.064 41.408-16.064c38.304 0 57.408 19.648 57.408 58.944v0zM737.312 288.32v-20.896h-33.568v20.896c0 13.44 5.696 20.16 17.152 20.16 10.944 0 16.416-6.72 16.416-20.16v0z" />
<glyph unicode="&#xe963;" glyph-name="twitter" d="M656.864 774.336c63.936 1.12 97.984-22.144 130.464-51.776 27.552 2.4 63.424 17.792 84.544 28.448 6.848 3.808 13.664 7.552 20.48 11.232-12-32.576-28.352-58.048-53.472-77.44-5.568-4.288-11.136-10.080-18.112-12.832v-0.384c35.776 0.352 65.312 16.544 93.376 25.28v-0.416c-14.752-23.456-34.688-47.2-55.968-64.192-8.608-6.848-17.216-13.664-25.792-20.512 0.512-37.856-0.512-74.080-7.648-105.92-41.184-185.184-150.336-310.944-323.2-364.832-62.080-19.328-162.368-27.264-233.472-9.6-35.264 8.736-67.136 18.624-97.024 31.68-16.576 7.232-31.968 15.136-46.688 24.064-4.832 2.944-9.664 5.888-14.464 8.8 16-0.448 34.784-4.864 52.704-1.984 16.224 2.624 32.128 1.952 47.104 5.184 37.312 8.192 70.464 19.008 99.008 35.744 13.888 8.064 34.88 17.6 44.704 29.312-18.56-0.352-35.328 3.968-49.088 8.832-53.376 18.848-84.448 53.536-104.64 105.536 16.192-1.76 62.752-5.984 73.664 3.168-20.384 1.184-39.936 12.96-53.952 21.696-42.944 26.88-77.952 71.936-77.664 141.248 5.664-2.656 11.264-5.312 16.896-8 10.784-4.576 21.728-6.976 34.592-9.632 5.472-1.088 16.352-4.352 22.592-1.984h-0.768c-8.32 9.632-21.856 16.064-30.176 26.432-27.584 34.272-53.376 86.944-37.024 149.728 4.128 15.904 10.688 29.984 17.696 42.944 0.256-0.128 0.544-0.288 0.8-0.416 3.2-6.72 10.368-11.68 14.88-17.28 14.112-17.472 31.424-33.088 49.088-46.912 60.256-47.168 114.496-76.096 201.664-97.536 22.080-5.44 47.68-9.632 74.048-9.664-7.392 21.6-4.992 56.512 0.8 77.44 14.752 52.608 46.592 90.432 93.376 110.784 11.2 4.864 23.616 8.384 36.672 11.2 6.72 0.864 13.376 1.664 20.096 2.496v0z" />
<glyph unicode="&#xe964;" glyph-name="poly_vore" d="M84.416 532.448v259.136h97.728c17.216 0 30.368-0.832 39.424-2.464 12.736-2.112 23.392-6.176 32-12.096s15.52-14.272 20.8-25.024c5.248-10.72 7.872-22.496 7.872-35.36 0-22.048-7.008-40.672-21.056-55.968s-39.36-22.88-76-22.88h-66.464v-105.344h-34.304zM118.72 668.352h67.008c22.144 0 37.888 4.128 47.2 12.352s13.952 19.872 13.952 34.816c0 10.816-2.752 20.128-8.224 27.84s-12.704 12.8-21.664 15.296c-5.792 1.536-16.448 2.304-32 2.304h-66.272v-92.608zM315.424 658.656c0 43.008 11.552 76.672 34.656 101.024s52.896 36.512 89.44 36.512c23.904 0 45.504-5.696 64.704-17.152s33.856-27.36 43.936-47.808c10.080-20.416 15.136-43.616 15.136-69.568 0-26.272-5.312-49.792-15.936-70.528s-25.632-36.448-45.056-47.104c-19.456-10.688-40.416-16-62.912-16-24.384 0-46.208 5.888-65.408 17.696s-33.76 27.84-43.68 48.256-14.88 41.92-14.88 64.704zM350.784 658.112c0-31.232 8.384-55.84 25.184-73.792s37.856-26.944 63.2-26.944c25.792 0 47.040 9.056 63.712 27.2s25.024 43.872 25.024 77.248c0 21.088-3.552 39.488-10.688 55.232s-17.568 27.936-31.296 36.576c-13.76 8.64-29.12 12.992-46.24 12.992-24.256 0-45.152-8.352-62.656-25.024s-26.272-44.512-26.272-83.52zM606.016 532.448v259.136h34.272v-228.544h127.616v-30.56h-161.888zM854.912 532.448v109.76l-99.872 149.344h41.728l51.072-78.144c9.408-14.624 18.24-29.248 26.336-43.84 7.776 13.536 17.216 28.8 28.256 45.792l50.208 76.192h39.968l-103.392-149.344v-109.76h-34.304zM111.68 170.432l-100.416 259.136h37.12l67.36-188.256c5.408-15.072 9.952-29.248 13.6-42.432 4.032 14.144 8.64 28.288 13.952 42.432l69.984 188.256h35.008l-101.44-259.136h-35.168zM268.672 296.64c0 43.040 11.552 76.704 34.656 101.024s52.896 36.512 89.44 36.512c23.904 0 45.504-5.696 64.704-17.152s33.856-27.36 43.936-47.808c10.080-20.448 15.104-43.648 15.104-69.568 0-26.272-5.312-49.76-15.904-70.528s-25.632-36.416-45.088-47.104-40.416-16-62.912-16c-24.384 0-46.208 5.888-65.408 17.664s-33.76 27.872-43.68 48.288c-9.92 20.384-14.848 41.952-14.848 64.704zM304 296.128c0-31.232 8.384-55.84 25.184-73.792s37.856-26.944 63.2-26.944c25.792 0 47.040 9.056 63.712 27.2s25.024 43.904 25.024 77.248c0 21.056-3.552 39.488-10.688 55.232s-17.568 27.936-31.296 36.608c-13.76 8.64-29.12 12.992-46.24 12.992-24.256 0-45.152-8.32-62.656-25.024s-26.272-44.48-26.272-83.52zM561.216 170.432v259.136h114.88c23.104 0 40.64-2.336 52.672-6.976 12.032-4.672 21.632-12.864 28.832-24.64s10.784-24.832 10.784-39.072c0-18.368-5.952-33.856-17.856-46.464s-30.304-20.64-55.136-24.032c9.056-4.352 15.936-8.64 20.672-12.896 10.048-9.184 19.52-20.672 28.448-34.496l45.088-70.528h-43.136l-34.304 53.888c-10.016 15.552-18.24 27.456-24.736 35.744s-12.288 14.016-17.44 17.344-10.304 5.568-15.648 6.88c-3.872 0.832-10.24 1.248-19.072 1.248h-39.776v-115.072h-34.304zM595.52 315.2h73.696c15.68 0 27.936 1.6 36.8 4.832s15.552 8.416 20.16 15.552 6.912 14.88 6.912 23.232c0 12.256-4.448 22.336-13.344 30.24s-22.944 11.84-42.144 11.84h-82.016v-85.696zM822.816 170.432v259.136h187.36v-30.56h-153.088v-79.392h143.36v-30.4h-143.36v-88.192h159.072v-30.56h-193.344z" />
<glyph unicode="&#xe965;" glyph-name="Views_f" d="M378.88 396.8v71.68c0 71.68 58.88 130.56 130.56 130.56s130.56-58.88 130.56-130.56v-71.68c0-71.68-58.88-130.56-130.56-130.56-71.68 2.56-130.56 58.88-130.56 130.56v0zM880.64 478.72c-2.56 5.12-28.16 61.44-79.36 117.76-58.88 64-153.6 130.56-291.84 130.56s-232.96-66.56-291.84-130.56c-53.76-58.88-76.8-112.64-79.36-117.76-12.8-25.6-12.8-61.44-2.56-84.48 0 0 25.6-61.44 81.92-122.88 58.88-64 153.6-128 291.84-128s232.96 64 291.84 128c56.32 61.44 79.36 120.32 79.36 120.32 12.8 28.16 10.24 66.56 0 87.040v0z" />
<glyph unicode="&#xe966;" glyph-name="arr_bottom" d="M474.035 168.627c20.864-36.147 54.989-36.147 75.827 0l300.314 520.166c20.89 36.122 3.814 65.69-37.914 65.69h-600.576c-41.728 0-58.778-29.568-37.914-65.664l300.262-520.192z" />
</font>
</defs>
</svg>
